<?xml version="1.0" encoding="UTF-8" standalone="no"?>
<!DOCTYPE svg PUBLIC "-//W3C//DTD SVG 1.1//EN" "http://www.w3.org/Graphics/SVG/1.1/DTD/svg11.dtd"><svg width="100%"
    height="100%" viewBox="0 0 1182 1182" version="1.1" xmlns="http://www.w3.org/2000/svg"
    xmlns:xlink="http://www.w3.org/1999/xlink" xml:space="preserve"
    style="fill-rule:evenodd;clip-rule:evenodd;stroke-linejoin:round;stroke-miterlimit:2;">
    <g transform="matrix(1,0,0,1,0,-1415)">
        <g id="logo" transform="matrix(1,0,0,1,0,1415)">
            <rect x="0" y="0" width="1181.102" height="1181.102" style="fill:none;" />
            <g id="EVAS" transform="matrix(1,0,0,1,-6.183994,138)">
                <g transform="matrix(2.074829,0,0,2.074829,-251.556386,226.742715)">
                    <path
                        d="M317.616,144.45L314.979,185.271L199.94,185.271L199.94,178.337C201.893,178.207 204.497,177.93 207.752,177.507C211.008,177.084 213.124,176.644 214.1,176.189C216.183,175.212 217.632,173.942 218.446,172.38C219.26,170.817 219.667,168.832 219.667,166.423L219.667,66.814C219.667,64.665 219.308,62.761 218.592,61.101C217.876,59.44 216.379,58.09 214.1,57.048C212.342,56.202 209.982,55.453 207.02,54.802C204.058,54.151 201.698,53.76 199.94,53.63L199.94,46.696L307.167,46.696L307.167,80.095L299.842,80.095C298.54,75.147 295.724,69.89 291.395,64.323C287.066,58.757 282.948,55.713 279.042,55.192C277.023,54.932 274.614,54.737 271.815,54.606C269.015,54.476 265.825,54.411 262.245,54.411L240.467,54.411L240.467,109.489L256.092,109.489C261.105,109.489 264.767,109.017 267.079,108.073C269.39,107.129 271.424,105.55 273.182,103.337C274.614,101.449 275.835,98.926 276.844,95.769C277.853,92.611 278.521,89.633 278.846,86.833L286.17,86.833L286.17,141.032L278.846,141.032C278.586,137.907 277.886,134.603 276.747,131.12C275.607,127.637 274.419,125.114 273.182,123.552C271.164,121.013 268.869,119.353 266.297,118.571C263.726,117.79 260.324,117.399 256.092,117.399L240.467,117.399L240.467,159.001C240.467,163.168 240.76,166.455 241.346,168.864C241.932,171.273 243.071,173.096 244.764,174.333C246.457,175.57 248.768,176.368 251.698,176.726C254.627,177.084 258.794,177.263 264.198,177.263L272.694,177.263C276.209,177.263 279.172,177.133 281.581,176.872C284.055,176.612 286.61,176.14 289.247,175.456C291.883,174.772 293.755,173.845 294.862,172.673C297.857,169.548 300.998,164.812 304.286,158.464C307.573,152.116 309.673,147.445 310.584,144.45L317.616,144.45Z"
                        style="fill:rgb(248,247,242);fill-rule:nonzero;" />
                    <path
                        d="M459.608,53.63C457.915,53.695 455.864,54.069 453.456,54.753C451.047,55.437 449.061,56.267 447.499,57.243C445.285,58.61 443.511,60.368 442.176,62.517C440.842,64.665 439.523,67.204 438.221,70.134C433.859,80.485 427.316,96.615 418.592,118.522C409.868,140.43 400.884,163.265 391.639,187.028L383.534,187.028C374.159,161.833 365.109,137.549 356.385,114.177C347.661,90.804 341.737,75.017 338.612,66.814C337.831,64.795 336.789,63.021 335.487,61.491C334.185,59.961 332.459,58.513 330.311,57.146C328.553,56.039 326.6,55.209 324.452,54.655C322.303,54.102 320.318,53.76 318.495,53.63L318.495,46.696L375.819,46.696L375.819,53.63C370.936,53.89 366.818,54.379 363.465,55.095C360.112,55.811 358.436,57.08 358.436,58.903C358.436,59.62 358.566,60.466 358.827,61.442C359.087,62.419 359.315,63.2 359.51,63.786C361.919,70.166 365.825,80.567 371.229,94.987C376.633,109.408 384.315,129.932 394.276,156.56C399.224,144.515 404.92,130.29 411.366,113.884C417.811,97.478 422.14,86.215 424.354,80.095C426.502,74.17 427.756,70.069 428.114,67.79C428.472,65.511 428.651,63.656 428.651,62.224C428.651,60.726 427.984,59.473 426.649,58.464C425.314,57.455 423.54,56.592 421.327,55.876C419.178,55.225 416.997,54.737 414.784,54.411C412.57,54.086 410.324,53.825 408.045,53.63L408.045,46.696L459.608,46.696L459.608,53.63Z"
                        style="fill:rgb(248,247,242);fill-rule:nonzero;" />
                </g>
                <g transform="matrix(2.074829,0,0,2.074829,-915.295529,-272.732702)">
                    <path
                        d="M745.821,537.996L688.106,537.996L688.106,531.062C693.184,530.737 697.399,530.086 700.752,529.109C704.105,528.133 705.782,526.928 705.782,525.496C705.782,524.91 705.716,524.194 705.586,523.348C705.456,522.501 705.261,521.752 705,521.101L693.477,490.047L644.942,490.047C643.119,494.604 641.638,498.575 640.498,501.961C639.359,505.346 638.334,508.471 637.422,511.336C636.576,514.135 635.99,516.414 635.664,518.172C635.339,519.93 635.176,521.362 635.176,522.469C635.176,525.073 637.227,527.091 641.328,528.523C645.43,529.956 650.052,530.802 655.196,531.062L655.196,537.996L603.047,537.996L603.047,531.062C604.74,530.932 606.856,530.558 609.395,529.939C611.934,529.321 614.017,528.491 615.645,527.449C618.249,525.691 620.267,523.852 621.699,521.931C623.132,520.011 624.532,517.358 625.899,513.973C632.865,496.59 640.547,477.058 648.946,455.379C657.344,433.699 664.831,414.396 671.407,397.469L679.219,397.469L725.41,517C726.387,519.539 727.494,521.59 728.731,523.152C729.968,524.715 731.693,526.245 733.907,527.742C735.404,528.653 737.357,529.418 739.766,530.037C742.175,530.655 744.193,530.997 745.821,531.062L745.821,537.996ZM689.961,481.355L668.965,427.644L648.36,481.355L689.961,481.355Z"
                        style="fill:rgb(248,247,242);fill-rule:nonzero;" />
                    <path
                        d="M837.032,474.422C839.961,477.677 842.126,481.241 843.526,485.115C844.925,488.989 845.625,493.497 845.625,498.64C845.625,510.88 841.101,520.971 832.051,528.914C823.002,536.857 811.771,540.828 798.36,540.828C792.175,540.828 785.99,539.868 779.805,537.947C773.62,536.027 768.282,533.699 763.789,530.965L759.59,538.094L751.778,538.094L750.41,490.633L758.321,490.633C759.948,496.492 761.852,501.782 764.033,506.502C766.214,511.222 769.095,515.633 772.676,519.734C776.061,523.575 780.017,526.635 784.541,528.914C789.066,531.193 794.323,532.332 800.313,532.332C804.805,532.332 808.727,531.746 812.08,530.574C815.433,529.402 818.151,527.742 820.235,525.594C822.318,523.445 823.864,520.922 824.873,518.025C825.882,515.128 826.387,511.792 826.387,508.015C826.387,502.482 824.824,497.322 821.699,492.537C818.574,487.752 813.92,484.122 807.735,481.648C803.503,479.956 798.653,478.084 793.184,476.033C787.715,473.982 782.995,472.045 779.024,470.223C771.211,466.707 765.14,462.101 760.811,456.404C756.481,450.708 754.317,443.269 754.317,434.09C754.317,428.816 755.391,423.901 757.539,419.344C759.688,414.786 762.748,410.717 766.719,407.137C770.495,403.751 774.955,401.098 780.098,399.178C785.241,397.257 790.612,396.297 796.211,396.297C802.591,396.297 808.304,397.273 813.35,399.226C818.395,401.18 823.002,403.458 827.168,406.062L831.172,399.422L838.985,399.422L839.766,445.418L831.856,445.418C830.423,440.144 828.812,435.099 827.022,430.281C825.231,425.463 822.904,421.101 820.039,417.195C817.24,413.419 813.822,410.408 809.785,408.162C805.749,405.916 800.801,404.793 794.942,404.793C788.757,404.793 783.483,406.778 779.121,410.75C774.759,414.721 772.578,419.571 772.578,425.301C772.578,431.29 773.978,436.254 776.778,440.193C779.577,444.132 783.646,447.371 788.985,449.91C793.737,452.189 798.408,454.158 802.998,455.818C807.588,457.478 812.032,459.252 816.328,461.14C820.235,462.833 823.994,464.754 827.608,466.902C831.221,469.051 834.362,471.557 837.032,474.422Z"
                        style="fill:rgb(248,247,242);fill-rule:nonzero;" />
                </g>
            </g>
            <g id="fig-leaf" transform="matrix(1.15332,0,0,1.15332,-30,50)">
                <path
                    d="M884.189,829.918C883.833,829.491 389.688,310.715 283.648,199.358C265.001,179.777 262.908,178.943 265.751,175.708C288.092,150.293 290.625,143.73 292.585,150.474C296.505,163.964 290.328,166.967 314.059,197.851C359.979,257.611 376.816,284.222 406.526,278.641C480.857,264.678 456.987,154.469 474.862,117.68C497.565,70.956 560.863,75.202 563.474,75.077C578.001,74.379 575.36,64.439 582.481,61.458C594.357,56.485 600.535,75.977 620.213,64.01C631.202,57.327 632.076,59.913 644.442,63.69C668.428,71.017 671.262,57.023 677.527,55.604C680.646,54.897 680.283,56.219 683.87,59.031C692.769,66.006 718.88,55.191 727.139,63.838C734.662,71.715 734.89,74.066 745.452,71.304C751.006,69.852 756.291,77.167 754.27,81.397C751.51,87.173 751.112,87.111 751.228,93.511C751.577,112.766 711.688,120.393 737.743,135.052C772.937,154.853 790.357,136.973 792.705,147.441C795.416,159.53 800.313,154.391 812.433,156.862C820.192,158.444 817.381,163.059 824.681,166.01C836.572,170.817 844.72,162.138 849.739,175.414C856.123,192.3 869.47,185.937 878.668,207.428C884.314,220.62 893.124,215.059 896.838,225.383C900.488,235.53 898.002,237.751 914.21,249.898C916.548,251.651 939.027,268.498 929.113,283.242C917.867,299.968 901.283,300.614 900.594,300.804C888.375,304.157 889.529,322.877 871.517,323.935C855.842,324.856 858.216,330.355 845.329,339.246C835.476,346.044 830.633,332.414 817.805,341.913C808.932,348.484 807.92,345.97 797.535,342.396C784.82,338.019 782.748,356.282 771.611,348.342C763.046,342.236 762.924,341.043 752.483,342.349C743.233,343.506 741.625,325.642 722.782,337.945C704.046,350.177 734.886,345.98 741.129,351.902C744.159,354.777 741.453,367.742 756.515,366.88C768.613,366.187 769.616,366.275 777.728,376.326C790.222,391.804 803.612,375.466 815.058,391.803C821.891,401.556 815.249,406.5 828.266,413.92C840.031,420.626 833.614,430.912 832.238,432.226C821.988,442.023 834.669,442.875 837.781,451.406C840.447,458.718 838.21,460.002 845.161,466.835C857.769,479.23 840.383,500.537 860.165,513.988C866.078,518.008 861.948,533.067 863.841,546.448C865.708,559.639 886.604,561.556 882.109,583.425C880.003,593.671 878.485,593.665 881.02,608.588C883.902,625.552 878.314,626.496 883.386,636.561C887.377,644.477 887.595,644.841 884.935,653.628C880.361,668.734 896.192,671.538 884.056,690.206C875.027,704.092 884.767,706.64 885.046,719.52C885.352,733.679 874.275,733.978 884.053,764.644C890.158,783.79 886.094,786.956 885.832,799.513C885.379,821.182 889.072,835.754 884.189,829.918Z"
                    style="fill:rgb(195,31,57);" />
            </g>
        </g>
    </g>
</svg>