<?xml version="1.0" encoding="UTF-8" standalone="no"?>
<!DOCTYPE svg PUBLIC "-//W3C//DTD SVG 1.1//EN" "http://www.w3.org/Graphics/SVG/1.1/DTD/svg11.dtd"><svg width="100%"
    height="100%" viewBox="0 0 1182 1182" version="1.1" xmlns="http://www.w3.org/2000/svg"
    xmlns:xlink="http://www.w3.org/1999/xlink" xml:space="preserve" xmlns:serif="http://www.serif.com/"
    style="fill-rule:evenodd;clip-rule:evenodd;stroke-linejoin:round;stroke-miterlimit:2;">
    <g transform="matrix(1,0,0,1,-1417,0)">
        <g id="Idea-1--inverted-" serif:id="Idea 1 (inverted)" transform="matrix(1,0,0,1,1417,0)">
            <g id="Subline" transform="matrix(1,0,0,1,62.5,-245.393517)">
                <g transform="matrix(25.430413,43.049902,-43.049902,25.430413,104.920352,1098.317013)">
                    <g id="Subline1" serif:id="Subline">
                        <path
                            d="M0.63,-0.204L0.617,-0L0.042,-0L0.042,-0.035C0.052,-0.035 0.065,-0.037 0.081,-0.039C0.097,-0.041 0.108,-0.043 0.113,-0.045C0.123,-0.05 0.13,-0.057 0.135,-0.064C0.139,-0.072 0.141,-0.082 0.141,-0.094L0.141,-0.592C0.141,-0.603 0.139,-0.613 0.135,-0.621C0.132,-0.629 0.124,-0.636 0.113,-0.641C0.104,-0.645 0.092,-0.649 0.077,-0.652C0.063,-0.656 0.051,-0.658 0.042,-0.658L0.042,-0.693L0.578,-0.693L0.578,-0.526L0.542,-0.526C0.535,-0.551 0.521,-0.577 0.499,-0.605C0.478,-0.633 0.457,-0.648 0.438,-0.65C0.427,-0.652 0.415,-0.653 0.401,-0.653C0.387,-0.654 0.371,-0.654 0.354,-0.654L0.245,-0.654L0.245,-0.379L0.323,-0.379C0.348,-0.379 0.366,-0.381 0.378,-0.386C0.389,-0.391 0.399,-0.399 0.408,-0.41C0.415,-0.419 0.421,-0.432 0.427,-0.448C0.432,-0.463 0.435,-0.478 0.437,-0.492L0.473,-0.492L0.473,-0.221L0.437,-0.221C0.435,-0.237 0.432,-0.253 0.426,-0.271C0.42,-0.288 0.414,-0.301 0.408,-0.309C0.398,-0.321 0.387,-0.33 0.374,-0.333C0.361,-0.337 0.344,-0.339 0.323,-0.339L0.245,-0.339L0.245,-0.131C0.245,-0.111 0.246,-0.094 0.249,-0.082C0.252,-0.07 0.258,-0.061 0.266,-0.055C0.275,-0.049 0.286,-0.045 0.301,-0.043C0.315,-0.041 0.336,-0.04 0.363,-0.04L0.406,-0.04C0.423,-0.04 0.438,-0.041 0.45,-0.042C0.463,-0.043 0.475,-0.046 0.489,-0.049C0.502,-0.052 0.511,-0.057 0.517,-0.063C0.532,-0.079 0.547,-0.102 0.564,-0.134C0.58,-0.166 0.591,-0.189 0.595,-0.204L0.63,-0.204Z"
                            style="fill:#f8f7f2;fill-rule:nonzero;" />
                    </g>
                </g>
                <g transform="matrix(27.755711,41.588706,-41.588706,27.755711,121.618145,1126.384503)">
                    <g id="Subline2" serif:id="Subline">
                        <path
                            d="M0.258,0.013C0.188,0.013 0.134,-0.01 0.094,-0.057C0.055,-0.103 0.035,-0.165 0.035,-0.243C0.035,-0.277 0.04,-0.308 0.051,-0.338C0.062,-0.367 0.077,-0.394 0.097,-0.418C0.116,-0.441 0.14,-0.46 0.169,-0.474C0.198,-0.488 0.23,-0.495 0.264,-0.495C0.311,-0.495 0.35,-0.484 0.379,-0.461C0.409,-0.439 0.424,-0.408 0.424,-0.369C0.424,-0.352 0.42,-0.338 0.412,-0.325C0.404,-0.313 0.391,-0.307 0.374,-0.307C0.354,-0.307 0.339,-0.312 0.329,-0.321C0.318,-0.331 0.313,-0.342 0.313,-0.354C0.313,-0.369 0.315,-0.384 0.319,-0.399C0.323,-0.415 0.325,-0.426 0.326,-0.433C0.32,-0.443 0.311,-0.45 0.3,-0.453C0.288,-0.457 0.276,-0.458 0.262,-0.458C0.247,-0.458 0.232,-0.455 0.218,-0.448C0.203,-0.442 0.19,-0.43 0.176,-0.412C0.164,-0.395 0.154,-0.373 0.147,-0.346C0.139,-0.318 0.136,-0.285 0.136,-0.247C0.136,-0.186 0.149,-0.137 0.176,-0.098C0.203,-0.06 0.238,-0.041 0.282,-0.041C0.313,-0.041 0.34,-0.049 0.361,-0.064C0.382,-0.079 0.402,-0.102 0.42,-0.133L0.452,-0.112C0.43,-0.074 0.402,-0.043 0.367,-0.021C0.332,0.001 0.295,0.013 0.258,0.013Z"
                            style="fill:#f8f7f2;fill-rule:nonzero;" />
                    </g>
                </g>
                <g transform="matrix(29.679897,40.238088,-40.238088,29.679897,134.189129,1145.342657)">
                    <g id="Subline3" serif:id="Subline">
                        <path
                            d="M0.504,-0.246C0.504,-0.212 0.499,-0.178 0.488,-0.146C0.478,-0.113 0.462,-0.085 0.442,-0.062C0.42,-0.036 0.394,-0.017 0.364,-0.004C0.335,0.008 0.301,0.015 0.265,0.015C0.234,0.015 0.205,0.009 0.177,-0.003C0.15,-0.014 0.125,-0.031 0.104,-0.053C0.082,-0.075 0.066,-0.102 0.053,-0.133C0.04,-0.164 0.034,-0.2 0.034,-0.239C0.034,-0.314 0.056,-0.375 0.1,-0.423C0.144,-0.471 0.201,-0.495 0.272,-0.495C0.339,-0.495 0.395,-0.472 0.439,-0.427C0.483,-0.382 0.504,-0.321 0.504,-0.246ZM0.403,-0.245C0.403,-0.269 0.401,-0.295 0.396,-0.322C0.391,-0.349 0.384,-0.372 0.374,-0.391C0.364,-0.411 0.35,-0.427 0.333,-0.44C0.316,-0.452 0.295,-0.458 0.271,-0.458C0.246,-0.458 0.225,-0.452 0.207,-0.439C0.189,-0.427 0.175,-0.41 0.164,-0.389C0.153,-0.369 0.146,-0.346 0.142,-0.321C0.137,-0.295 0.135,-0.271 0.135,-0.247C0.135,-0.216 0.138,-0.187 0.143,-0.16C0.148,-0.134 0.156,-0.11 0.167,-0.089C0.178,-0.069 0.192,-0.052 0.209,-0.04C0.226,-0.028 0.246,-0.022 0.271,-0.022C0.312,-0.022 0.344,-0.042 0.368,-0.082C0.391,-0.121 0.403,-0.175 0.403,-0.245Z"
                            style="fill:#f8f7f2;fill-rule:nonzero;" />
                    </g>
                </g>
                <g transform="matrix(31.22792,39.048905,-39.048905,31.22792,150.271378,1166.918752)">
                    <g id="Subline4" serif:id="Subline">
                        <path
                            d="M0.261,-0L0.026,-0L0.026,-0.032C0.033,-0.033 0.041,-0.034 0.05,-0.034C0.058,-0.035 0.065,-0.036 0.071,-0.038C0.08,-0.041 0.087,-0.046 0.091,-0.053C0.096,-0.061 0.098,-0.07 0.098,-0.082L0.098,-0.64C0.098,-0.651 0.096,-0.662 0.091,-0.673C0.086,-0.683 0.079,-0.691 0.071,-0.697C0.065,-0.701 0.054,-0.704 0.039,-0.708C0.023,-0.711 0.01,-0.713 0.001,-0.713L0.001,-0.745L0.182,-0.756L0.189,-0.749L0.189,-0.088C0.189,-0.076 0.191,-0.067 0.195,-0.06C0.2,-0.052 0.206,-0.047 0.216,-0.043C0.223,-0.04 0.23,-0.037 0.237,-0.036C0.244,-0.034 0.252,-0.033 0.261,-0.032L0.261,-0Z"
                            style="fill:#f8f7f2;fill-rule:nonzero;" />
                    </g>
                </g>
                <g transform="matrix(32.816998,37.723264,-37.723264,32.816998,159.10956,1178.159517)">
                    <g id="Subline5" serif:id="Subline">
                        <path
                            d="M0.504,-0.246C0.504,-0.212 0.499,-0.178 0.488,-0.146C0.478,-0.113 0.462,-0.085 0.442,-0.062C0.42,-0.036 0.394,-0.017 0.364,-0.004C0.335,0.008 0.301,0.015 0.265,0.015C0.234,0.015 0.205,0.009 0.177,-0.003C0.15,-0.014 0.125,-0.031 0.104,-0.053C0.082,-0.075 0.066,-0.102 0.053,-0.133C0.04,-0.164 0.034,-0.2 0.034,-0.239C0.034,-0.314 0.056,-0.375 0.1,-0.423C0.144,-0.471 0.201,-0.495 0.272,-0.495C0.339,-0.495 0.395,-0.472 0.439,-0.427C0.483,-0.382 0.504,-0.321 0.504,-0.246ZM0.403,-0.245C0.403,-0.269 0.401,-0.295 0.396,-0.322C0.391,-0.349 0.384,-0.372 0.374,-0.391C0.364,-0.411 0.35,-0.427 0.333,-0.44C0.316,-0.452 0.295,-0.458 0.271,-0.458C0.246,-0.458 0.225,-0.452 0.207,-0.439C0.189,-0.427 0.175,-0.41 0.164,-0.389C0.153,-0.369 0.146,-0.346 0.142,-0.321C0.137,-0.295 0.135,-0.271 0.135,-0.247C0.135,-0.216 0.138,-0.187 0.143,-0.16C0.148,-0.134 0.156,-0.11 0.167,-0.089C0.178,-0.069 0.192,-0.052 0.209,-0.04C0.226,-0.028 0.246,-0.022 0.271,-0.022C0.312,-0.022 0.344,-0.042 0.368,-0.082C0.391,-0.121 0.403,-0.175 0.403,-0.245Z"
                            style="fill:#f8f7f2;fill-rule:nonzero;" />
                    </g>
                </g>
                <g transform="matrix(34.704672,35.994246,-35.994246,34.704672,176.830943,1198.500668)">
                    <g id="Subline6" serif:id="Subline">
                        <path
                            d="M0.448,-0.05C0.461,-0.037 0.471,-0.023 0.479,-0.008C0.486,0.008 0.49,0.027 0.49,0.05C0.49,0.073 0.485,0.095 0.475,0.115C0.465,0.136 0.449,0.153 0.429,0.168C0.407,0.184 0.381,0.196 0.351,0.204C0.32,0.213 0.283,0.217 0.238,0.217C0.165,0.217 0.111,0.206 0.075,0.185C0.039,0.163 0.021,0.132 0.021,0.091C0.021,0.058 0.034,0.032 0.06,0.013C0.086,-0.007 0.119,-0.017 0.159,-0.019L0.159,-0.025C0.149,-0.028 0.139,-0.032 0.129,-0.036C0.118,-0.041 0.11,-0.046 0.102,-0.052C0.094,-0.059 0.087,-0.067 0.082,-0.076C0.076,-0.085 0.074,-0.097 0.074,-0.11C0.074,-0.128 0.08,-0.143 0.092,-0.158C0.104,-0.172 0.123,-0.185 0.147,-0.195L0.147,-0.203C0.116,-0.217 0.092,-0.236 0.075,-0.259C0.057,-0.282 0.049,-0.309 0.049,-0.339C0.049,-0.384 0.066,-0.422 0.1,-0.451C0.134,-0.48 0.177,-0.495 0.23,-0.495C0.245,-0.495 0.26,-0.494 0.274,-0.491C0.289,-0.488 0.303,-0.484 0.318,-0.479L0.486,-0.479L0.486,-0.433L0.373,-0.433L0.373,-0.43C0.385,-0.416 0.394,-0.4 0.4,-0.383C0.406,-0.366 0.409,-0.35 0.409,-0.333C0.409,-0.291 0.392,-0.255 0.357,-0.226C0.323,-0.197 0.283,-0.182 0.237,-0.182L0.178,-0.182C0.171,-0.18 0.163,-0.175 0.155,-0.168C0.147,-0.161 0.143,-0.152 0.143,-0.14C0.143,-0.128 0.146,-0.119 0.153,-0.113C0.16,-0.106 0.168,-0.102 0.178,-0.1C0.187,-0.097 0.198,-0.095 0.211,-0.095C0.223,-0.094 0.236,-0.094 0.25,-0.093C0.264,-0.093 0.283,-0.092 0.308,-0.09C0.333,-0.089 0.351,-0.088 0.361,-0.087C0.376,-0.087 0.391,-0.083 0.406,-0.077C0.422,-0.07 0.435,-0.061 0.448,-0.05ZM0.316,-0.335C0.316,-0.374 0.308,-0.404 0.293,-0.427C0.277,-0.449 0.256,-0.46 0.228,-0.46C0.212,-0.46 0.199,-0.457 0.188,-0.451C0.177,-0.445 0.168,-0.436 0.162,-0.424C0.155,-0.413 0.15,-0.4 0.148,-0.385C0.145,-0.37 0.144,-0.354 0.144,-0.338C0.144,-0.302 0.151,-0.273 0.167,-0.25C0.183,-0.227 0.203,-0.216 0.229,-0.216C0.257,-0.216 0.278,-0.227 0.293,-0.25C0.308,-0.272 0.316,-0.301 0.316,-0.335ZM0.41,0.068C0.41,0.05 0.405,0.035 0.397,0.023C0.389,0.012 0.376,0.004 0.358,-0C0.349,-0.002 0.331,-0.003 0.302,-0.005C0.274,-0.007 0.241,-0.007 0.204,-0.007C0.168,-0 0.143,0.011 0.129,0.027C0.114,0.043 0.106,0.064 0.106,0.089C0.106,0.101 0.109,0.112 0.114,0.122C0.119,0.132 0.127,0.142 0.139,0.151C0.151,0.159 0.166,0.166 0.185,0.172C0.204,0.177 0.228,0.18 0.255,0.18C0.303,0.18 0.341,0.17 0.368,0.152C0.396,0.134 0.41,0.106 0.41,0.068Z"
                            style="fill:#f8f7f2;fill-rule:nonzero;" />
                    </g>
                </g>
                <g transform="matrix(36.078109,34.617482,-34.617482,36.078109,194.581271,1216.75768)">
                    <g id="Subline7" serif:id="Subline">
                        <path
                            d="M0.269,-0L0.036,-0L0.036,-0.032C0.044,-0.033 0.051,-0.034 0.059,-0.034C0.067,-0.035 0.074,-0.036 0.08,-0.038C0.089,-0.041 0.096,-0.046 0.1,-0.053C0.105,-0.061 0.107,-0.07 0.107,-0.082L0.107,-0.379C0.107,-0.39 0.105,-0.399 0.1,-0.408C0.095,-0.417 0.089,-0.424 0.08,-0.43C0.074,-0.434 0.065,-0.437 0.053,-0.44C0.042,-0.442 0.031,-0.444 0.021,-0.445L0.021,-0.477L0.191,-0.487L0.198,-0.48L0.198,-0.088C0.198,-0.076 0.2,-0.067 0.204,-0.06C0.209,-0.052 0.216,-0.047 0.225,-0.043C0.232,-0.04 0.239,-0.038 0.246,-0.036C0.253,-0.034 0.261,-0.033 0.269,-0.032L0.269,-0ZM0.208,-0.677C0.208,-0.659 0.201,-0.642 0.189,-0.629C0.177,-0.615 0.162,-0.608 0.144,-0.608C0.127,-0.608 0.113,-0.615 0.101,-0.628C0.089,-0.641 0.083,-0.656 0.083,-0.673C0.083,-0.691 0.089,-0.706 0.101,-0.72C0.113,-0.733 0.127,-0.74 0.144,-0.74C0.163,-0.74 0.178,-0.733 0.19,-0.721C0.202,-0.708 0.208,-0.694 0.208,-0.677Z"
                            style="fill:#f8f7f2;fill-rule:nonzero;" />
                    </g>
                </g>
                <g transform="matrix(37.372705,33.215673,-33.215673,37.372705,205.098666,1226.975168)">
                    <g id="Subline8" serif:id="Subline">
                        <path
                            d="M0.258,0.013C0.188,0.013 0.134,-0.01 0.094,-0.057C0.055,-0.103 0.035,-0.165 0.035,-0.243C0.035,-0.277 0.04,-0.308 0.051,-0.338C0.062,-0.367 0.077,-0.394 0.097,-0.418C0.116,-0.441 0.14,-0.46 0.169,-0.474C0.198,-0.488 0.23,-0.495 0.264,-0.495C0.311,-0.495 0.35,-0.484 0.379,-0.461C0.409,-0.439 0.424,-0.408 0.424,-0.369C0.424,-0.352 0.42,-0.338 0.412,-0.325C0.404,-0.313 0.391,-0.307 0.374,-0.307C0.354,-0.307 0.339,-0.312 0.329,-0.321C0.318,-0.331 0.313,-0.342 0.313,-0.354C0.313,-0.369 0.315,-0.384 0.319,-0.399C0.323,-0.415 0.325,-0.426 0.326,-0.433C0.32,-0.443 0.311,-0.45 0.3,-0.453C0.288,-0.457 0.276,-0.458 0.262,-0.458C0.247,-0.458 0.232,-0.455 0.218,-0.448C0.203,-0.442 0.19,-0.43 0.176,-0.412C0.164,-0.395 0.154,-0.373 0.147,-0.346C0.139,-0.318 0.136,-0.285 0.136,-0.247C0.136,-0.186 0.149,-0.137 0.176,-0.098C0.203,-0.06 0.238,-0.041 0.282,-0.041C0.313,-0.041 0.34,-0.049 0.361,-0.064C0.382,-0.079 0.402,-0.102 0.42,-0.133L0.452,-0.112C0.43,-0.074 0.402,-0.043 0.367,-0.021C0.332,0.001 0.295,0.013 0.258,0.013Z"
                            style="fill:#f8f7f2;fill-rule:nonzero;" />
                    </g>
                </g>
                <g transform="matrix(38.873491,31.446013,-31.446013,38.873491,222.032283,1242.109692)">
                    <g id="Subline9" serif:id="Subline">
                        <path
                            d="M0.491,-0.009C0.476,-0.003 0.462,0.001 0.451,0.005C0.439,0.008 0.426,0.01 0.412,0.01C0.386,0.01 0.366,0.004 0.351,-0.008C0.336,-0.02 0.326,-0.037 0.322,-0.06L0.319,-0.06C0.298,-0.037 0.275,-0.019 0.251,-0.006C0.226,0.006 0.197,0.012 0.163,0.012C0.127,0.012 0.097,0.001 0.074,-0.021C0.051,-0.043 0.039,-0.072 0.039,-0.108C0.039,-0.126 0.042,-0.143 0.047,-0.158C0.052,-0.172 0.06,-0.186 0.07,-0.197C0.078,-0.207 0.089,-0.216 0.103,-0.223C0.116,-0.231 0.128,-0.237 0.14,-0.242C0.155,-0.247 0.184,-0.257 0.229,-0.272C0.274,-0.287 0.304,-0.299 0.32,-0.308L0.32,-0.356C0.32,-0.36 0.319,-0.368 0.317,-0.38C0.315,-0.392 0.312,-0.404 0.306,-0.415C0.299,-0.427 0.29,-0.437 0.278,-0.446C0.266,-0.455 0.249,-0.459 0.228,-0.459C0.213,-0.459 0.199,-0.457 0.186,-0.452C0.173,-0.447 0.164,-0.442 0.159,-0.436C0.159,-0.43 0.16,-0.42 0.163,-0.407C0.166,-0.395 0.168,-0.383 0.168,-0.372C0.168,-0.361 0.163,-0.35 0.153,-0.341C0.142,-0.331 0.128,-0.327 0.11,-0.327C0.094,-0.327 0.082,-0.332 0.074,-0.344C0.066,-0.356 0.062,-0.368 0.062,-0.383C0.062,-0.398 0.068,-0.412 0.078,-0.426C0.089,-0.439 0.103,-0.452 0.12,-0.462C0.134,-0.472 0.152,-0.479 0.173,-0.486C0.194,-0.492 0.214,-0.495 0.234,-0.495C0.261,-0.495 0.285,-0.493 0.305,-0.49C0.326,-0.486 0.344,-0.478 0.361,-0.465C0.377,-0.453 0.39,-0.437 0.399,-0.416C0.407,-0.396 0.412,-0.369 0.412,-0.336C0.412,-0.29 0.411,-0.249 0.41,-0.213C0.409,-0.177 0.409,-0.137 0.409,-0.095C0.409,-0.082 0.411,-0.072 0.415,-0.064C0.42,-0.057 0.426,-0.051 0.436,-0.045C0.44,-0.042 0.448,-0.041 0.459,-0.041C0.469,-0.04 0.48,-0.04 0.491,-0.04L0.491,-0.009ZM0.321,-0.267C0.293,-0.258 0.269,-0.25 0.248,-0.243C0.227,-0.235 0.208,-0.225 0.19,-0.213C0.174,-0.202 0.161,-0.189 0.151,-0.174C0.142,-0.159 0.137,-0.141 0.137,-0.12C0.137,-0.093 0.144,-0.073 0.158,-0.061C0.173,-0.048 0.191,-0.042 0.212,-0.042C0.236,-0.042 0.256,-0.047 0.273,-0.058C0.291,-0.07 0.306,-0.083 0.318,-0.098L0.321,-0.267Z"
                            style="fill:#f8f7f2;fill-rule:nonzero;" />
                    </g>
                </g>
                <g transform="matrix(39.981326,30.024882,-30.024882,39.981326,241.661617,1257.864098)">
                    <g id="Subline10" serif:id="Subline">
                        <path
                            d="M0.261,-0L0.026,-0L0.026,-0.032C0.033,-0.033 0.041,-0.034 0.05,-0.034C0.058,-0.035 0.065,-0.036 0.071,-0.038C0.08,-0.041 0.087,-0.046 0.091,-0.053C0.096,-0.061 0.098,-0.07 0.098,-0.082L0.098,-0.64C0.098,-0.651 0.096,-0.662 0.091,-0.673C0.086,-0.683 0.079,-0.691 0.071,-0.697C0.065,-0.701 0.054,-0.704 0.039,-0.708C0.023,-0.711 0.01,-0.713 0.001,-0.713L0.001,-0.745L0.182,-0.756L0.189,-0.749L0.189,-0.088C0.189,-0.076 0.191,-0.067 0.195,-0.06C0.2,-0.052 0.206,-0.047 0.216,-0.043C0.223,-0.04 0.23,-0.037 0.237,-0.036C0.244,-0.034 0.252,-0.033 0.261,-0.032L0.261,-0Z"
                            style="fill:#f8f7f2;fill-rule:nonzero;" />
                    </g>
                </g>
                <g transform="matrix(42.026452,27.088325,-27.088325,42.026452,262.861911,1273.643627)">
                    <g id="Subline11" serif:id="Subline">
                        <path
                            d="M0.687,-0.658C0.679,-0.658 0.668,-0.656 0.656,-0.653C0.644,-0.649 0.634,-0.645 0.626,-0.64C0.615,-0.633 0.607,-0.625 0.6,-0.614C0.593,-0.603 0.587,-0.59 0.58,-0.576C0.558,-0.524 0.526,-0.443 0.482,-0.334C0.438,-0.224 0.393,-0.11 0.347,0.009L0.307,0.009C0.26,-0.117 0.215,-0.239 0.171,-0.355C0.127,-0.472 0.098,-0.551 0.082,-0.592C0.078,-0.602 0.073,-0.611 0.066,-0.619C0.06,-0.627 0.051,-0.634 0.041,-0.641C0.032,-0.646 0.022,-0.65 0.011,-0.653C0,-0.656 -0.009,-0.658 -0.019,-0.658L-0.019,-0.693L0.268,-0.693L0.268,-0.658C0.244,-0.657 0.223,-0.654 0.206,-0.651C0.19,-0.647 0.181,-0.641 0.181,-0.632C0.181,-0.628 0.182,-0.624 0.183,-0.619C0.184,-0.614 0.186,-0.61 0.187,-0.607C0.199,-0.576 0.218,-0.524 0.245,-0.451C0.272,-0.379 0.311,-0.277 0.36,-0.144C0.385,-0.204 0.414,-0.275 0.446,-0.357C0.478,-0.439 0.5,-0.495 0.511,-0.526C0.521,-0.556 0.528,-0.576 0.53,-0.587C0.531,-0.599 0.532,-0.608 0.532,-0.615C0.532,-0.623 0.529,-0.629 0.522,-0.634C0.516,-0.639 0.507,-0.643 0.496,-0.647C0.485,-0.65 0.474,-0.653 0.463,-0.654C0.452,-0.656 0.441,-0.657 0.429,-0.658L0.429,-0.693L0.687,-0.693L0.687,-0.658Z"
                            style="fill:#f8f7f2;fill-rule:nonzero;" />
                    </g>
                </g>
                <g transform="matrix(43.540883,24.580308,-24.580308,43.540883,290.924106,1291.614728)">
                    <g id="Subline12" serif:id="Subline">
                        <path
                            d="M0.491,-0.009C0.476,-0.003 0.462,0.001 0.451,0.005C0.439,0.008 0.426,0.01 0.412,0.01C0.386,0.01 0.366,0.004 0.351,-0.008C0.336,-0.02 0.326,-0.037 0.322,-0.06L0.319,-0.06C0.298,-0.037 0.275,-0.019 0.251,-0.006C0.226,0.006 0.197,0.012 0.163,0.012C0.127,0.012 0.097,0.001 0.074,-0.021C0.051,-0.043 0.039,-0.072 0.039,-0.108C0.039,-0.126 0.042,-0.143 0.047,-0.158C0.052,-0.172 0.06,-0.186 0.07,-0.197C0.078,-0.207 0.089,-0.216 0.103,-0.223C0.116,-0.231 0.128,-0.237 0.14,-0.242C0.155,-0.247 0.184,-0.257 0.229,-0.272C0.274,-0.287 0.304,-0.299 0.32,-0.308L0.32,-0.356C0.32,-0.36 0.319,-0.368 0.317,-0.38C0.315,-0.392 0.312,-0.404 0.306,-0.415C0.299,-0.427 0.29,-0.437 0.278,-0.446C0.266,-0.455 0.249,-0.459 0.228,-0.459C0.213,-0.459 0.199,-0.457 0.186,-0.452C0.173,-0.447 0.164,-0.442 0.159,-0.436C0.159,-0.43 0.16,-0.42 0.163,-0.407C0.166,-0.395 0.168,-0.383 0.168,-0.372C0.168,-0.361 0.163,-0.35 0.153,-0.341C0.142,-0.331 0.128,-0.327 0.11,-0.327C0.094,-0.327 0.082,-0.332 0.074,-0.344C0.066,-0.356 0.062,-0.368 0.062,-0.383C0.062,-0.398 0.068,-0.412 0.078,-0.426C0.089,-0.439 0.103,-0.452 0.12,-0.462C0.134,-0.472 0.152,-0.479 0.173,-0.486C0.194,-0.492 0.214,-0.495 0.234,-0.495C0.261,-0.495 0.285,-0.493 0.305,-0.49C0.326,-0.486 0.344,-0.478 0.361,-0.465C0.377,-0.453 0.39,-0.437 0.399,-0.416C0.407,-0.396 0.412,-0.369 0.412,-0.336C0.412,-0.29 0.411,-0.249 0.41,-0.213C0.409,-0.177 0.409,-0.137 0.409,-0.095C0.409,-0.082 0.411,-0.072 0.415,-0.064C0.42,-0.057 0.426,-0.051 0.436,-0.045C0.44,-0.042 0.448,-0.041 0.459,-0.041C0.469,-0.04 0.48,-0.04 0.491,-0.04L0.491,-0.009ZM0.321,-0.267C0.293,-0.258 0.269,-0.25 0.248,-0.243C0.227,-0.235 0.208,-0.225 0.19,-0.213C0.174,-0.202 0.161,-0.189 0.151,-0.174C0.142,-0.159 0.137,-0.141 0.137,-0.12C0.137,-0.093 0.144,-0.073 0.158,-0.061C0.173,-0.048 0.191,-0.042 0.212,-0.042C0.236,-0.042 0.256,-0.047 0.273,-0.058C0.291,-0.07 0.306,-0.083 0.318,-0.098L0.321,-0.267Z"
                            style="fill:#f8f7f2;fill-rule:nonzero;" />
                    </g>
                </g>
                <g transform="matrix(44.405513,22.981524,-22.981524,44.405513,312.913715,1303.916067)">
                    <g id="Subline13" serif:id="Subline">
                        <path
                            d="M0.261,-0L0.026,-0L0.026,-0.032C0.033,-0.033 0.041,-0.034 0.05,-0.034C0.058,-0.035 0.065,-0.036 0.071,-0.038C0.08,-0.041 0.087,-0.046 0.091,-0.053C0.096,-0.061 0.098,-0.07 0.098,-0.082L0.098,-0.64C0.098,-0.651 0.096,-0.662 0.091,-0.673C0.086,-0.683 0.079,-0.691 0.071,-0.697C0.065,-0.701 0.054,-0.704 0.039,-0.708C0.023,-0.711 0.01,-0.713 0.001,-0.713L0.001,-0.745L0.182,-0.756L0.189,-0.749L0.189,-0.088C0.189,-0.076 0.191,-0.067 0.195,-0.06C0.2,-0.052 0.206,-0.047 0.216,-0.043C0.223,-0.04 0.23,-0.037 0.237,-0.036C0.244,-0.034 0.252,-0.033 0.261,-0.032L0.261,-0Z"
                            style="fill:#f8f7f2;fill-rule:nonzero;" />
                    </g>
                </g>
                <g transform="matrix(45.063078,21.663772,-21.663772,45.063078,325.567072,1310.457247)">
                    <g id="Subline14" serif:id="Subline">
                        <path
                            d="M0.269,-0L0.036,-0L0.036,-0.032C0.044,-0.033 0.051,-0.034 0.059,-0.034C0.067,-0.035 0.074,-0.036 0.08,-0.038C0.089,-0.041 0.096,-0.046 0.1,-0.053C0.105,-0.061 0.107,-0.07 0.107,-0.082L0.107,-0.379C0.107,-0.39 0.105,-0.399 0.1,-0.408C0.095,-0.417 0.089,-0.424 0.08,-0.43C0.074,-0.434 0.065,-0.437 0.053,-0.44C0.042,-0.442 0.031,-0.444 0.021,-0.445L0.021,-0.477L0.191,-0.487L0.198,-0.48L0.198,-0.088C0.198,-0.076 0.2,-0.067 0.204,-0.06C0.209,-0.052 0.216,-0.047 0.225,-0.043C0.232,-0.04 0.239,-0.038 0.246,-0.036C0.253,-0.034 0.261,-0.033 0.269,-0.032L0.269,-0ZM0.208,-0.677C0.208,-0.659 0.201,-0.642 0.189,-0.629C0.177,-0.615 0.162,-0.608 0.144,-0.608C0.127,-0.608 0.113,-0.615 0.101,-0.628C0.089,-0.641 0.083,-0.656 0.083,-0.673C0.083,-0.691 0.089,-0.706 0.101,-0.72C0.113,-0.733 0.127,-0.74 0.144,-0.74C0.163,-0.74 0.178,-0.733 0.19,-0.721C0.202,-0.708 0.208,-0.694 0.208,-0.677Z"
                            style="fill:#f8f7f2;fill-rule:nonzero;" />
                    </g>
                </g>
                <g transform="matrix(45.974044,19.656736,-19.656736,45.974044,338.705228,1316.957814)">
                    <g id="Subline15" serif:id="Subline">
                        <path
                            d="M0.562,-0.009L0.395,0.002L0.387,-0.005L0.387,-0.05L0.383,-0.051C0.366,-0.032 0.345,-0.016 0.321,-0.004C0.296,0.008 0.27,0.014 0.244,0.014C0.216,0.014 0.19,0.008 0.164,-0.005C0.139,-0.017 0.117,-0.034 0.098,-0.056C0.078,-0.079 0.063,-0.106 0.052,-0.137C0.041,-0.169 0.035,-0.204 0.035,-0.242C0.035,-0.277 0.041,-0.31 0.053,-0.341C0.065,-0.372 0.082,-0.399 0.103,-0.423C0.123,-0.445 0.147,-0.462 0.176,-0.475C0.205,-0.488 0.234,-0.495 0.264,-0.495C0.287,-0.495 0.309,-0.492 0.33,-0.486C0.352,-0.48 0.371,-0.473 0.386,-0.464L0.386,-0.632C0.386,-0.646 0.384,-0.658 0.379,-0.669C0.375,-0.68 0.368,-0.689 0.36,-0.695C0.351,-0.701 0.339,-0.705 0.323,-0.708C0.308,-0.711 0.291,-0.713 0.273,-0.714L0.273,-0.745L0.47,-0.756L0.478,-0.749L0.478,-0.099C0.478,-0.088 0.48,-0.078 0.484,-0.07C0.489,-0.062 0.495,-0.055 0.503,-0.05C0.51,-0.046 0.519,-0.043 0.53,-0.042C0.542,-0.042 0.553,-0.041 0.562,-0.041L0.562,-0.009ZM0.386,-0.093L0.386,-0.375C0.384,-0.383 0.379,-0.393 0.374,-0.402C0.368,-0.412 0.36,-0.421 0.352,-0.429C0.342,-0.437 0.331,-0.444 0.318,-0.449C0.306,-0.455 0.291,-0.458 0.274,-0.458C0.254,-0.458 0.236,-0.452 0.22,-0.442C0.204,-0.432 0.189,-0.418 0.176,-0.399C0.164,-0.381 0.155,-0.358 0.148,-0.329C0.141,-0.301 0.137,-0.27 0.137,-0.236C0.137,-0.208 0.14,-0.184 0.145,-0.161C0.15,-0.139 0.159,-0.118 0.171,-0.099C0.183,-0.081 0.197,-0.066 0.215,-0.055C0.233,-0.044 0.254,-0.039 0.278,-0.039C0.304,-0.039 0.326,-0.044 0.343,-0.056C0.36,-0.067 0.375,-0.08 0.386,-0.093Z"
                            style="fill:#f8f7f2;fill-rule:nonzero;" />
                    </g>
                </g>
                <g transform="matrix(46.960416,17.167392,-17.167392,46.960416,365.176487,1328.259105)">
                    <g id="Subline16" serif:id="Subline">
                        <path
                            d="M0.491,-0.009C0.476,-0.003 0.462,0.001 0.451,0.005C0.439,0.008 0.426,0.01 0.412,0.01C0.386,0.01 0.366,0.004 0.351,-0.008C0.336,-0.02 0.326,-0.037 0.322,-0.06L0.319,-0.06C0.298,-0.037 0.275,-0.019 0.251,-0.006C0.226,0.006 0.197,0.012 0.163,0.012C0.127,0.012 0.097,0.001 0.074,-0.021C0.051,-0.043 0.039,-0.072 0.039,-0.108C0.039,-0.126 0.042,-0.143 0.047,-0.158C0.052,-0.172 0.06,-0.186 0.07,-0.197C0.078,-0.207 0.089,-0.216 0.103,-0.223C0.116,-0.231 0.128,-0.237 0.14,-0.242C0.155,-0.247 0.184,-0.257 0.229,-0.272C0.274,-0.287 0.304,-0.299 0.32,-0.308L0.32,-0.356C0.32,-0.36 0.319,-0.368 0.317,-0.38C0.315,-0.392 0.312,-0.404 0.306,-0.415C0.299,-0.427 0.29,-0.437 0.278,-0.446C0.266,-0.455 0.249,-0.459 0.228,-0.459C0.213,-0.459 0.199,-0.457 0.186,-0.452C0.173,-0.447 0.164,-0.442 0.159,-0.436C0.159,-0.43 0.16,-0.42 0.163,-0.407C0.166,-0.395 0.168,-0.383 0.168,-0.372C0.168,-0.361 0.163,-0.35 0.153,-0.341C0.142,-0.331 0.128,-0.327 0.11,-0.327C0.094,-0.327 0.082,-0.332 0.074,-0.344C0.066,-0.356 0.062,-0.368 0.062,-0.383C0.062,-0.398 0.068,-0.412 0.078,-0.426C0.089,-0.439 0.103,-0.452 0.12,-0.462C0.134,-0.472 0.152,-0.479 0.173,-0.486C0.194,-0.492 0.214,-0.495 0.234,-0.495C0.261,-0.495 0.285,-0.493 0.305,-0.49C0.326,-0.486 0.344,-0.478 0.361,-0.465C0.377,-0.453 0.39,-0.437 0.399,-0.416C0.407,-0.396 0.412,-0.369 0.412,-0.336C0.412,-0.29 0.411,-0.249 0.41,-0.213C0.409,-0.177 0.409,-0.137 0.409,-0.095C0.409,-0.082 0.411,-0.072 0.415,-0.064C0.42,-0.057 0.426,-0.051 0.436,-0.045C0.44,-0.042 0.448,-0.041 0.459,-0.041C0.469,-0.04 0.48,-0.04 0.491,-0.04L0.491,-0.009ZM0.321,-0.267C0.293,-0.258 0.269,-0.25 0.248,-0.243C0.227,-0.235 0.208,-0.225 0.19,-0.213C0.174,-0.202 0.161,-0.189 0.151,-0.174C0.142,-0.159 0.137,-0.141 0.137,-0.12C0.137,-0.093 0.144,-0.073 0.158,-0.061C0.173,-0.048 0.191,-0.042 0.212,-0.042C0.236,-0.042 0.256,-0.047 0.273,-0.058C0.291,-0.07 0.306,-0.083 0.318,-0.098L0.321,-0.267Z"
                            style="fill:#f8f7f2;fill-rule:nonzero;" />
                    </g>
                </g>
                <g transform="matrix(47.614712,15.25907,-15.25907,47.614712,388.843068,1336.836981)">
                    <g id="Subline17" serif:id="Subline">
                        <path
                            d="M0.333,-0.021C0.311,-0.012 0.291,-0.005 0.272,0.001C0.254,0.007 0.23,0.01 0.203,0.01C0.163,0.01 0.134,0 0.118,-0.02C0.101,-0.041 0.093,-0.069 0.093,-0.106L0.093,-0.433L0.006,-0.433L0.006,-0.479L0.095,-0.479L0.095,-0.629L0.184,-0.629L0.184,-0.479L0.322,-0.479L0.322,-0.433L0.185,-0.433L0.185,-0.164C0.185,-0.143 0.186,-0.127 0.187,-0.113C0.189,-0.1 0.192,-0.088 0.198,-0.078C0.203,-0.068 0.211,-0.061 0.221,-0.056C0.232,-0.051 0.246,-0.049 0.263,-0.049C0.271,-0.049 0.283,-0.05 0.299,-0.051C0.315,-0.052 0.326,-0.054 0.333,-0.057L0.333,-0.021Z"
                            style="fill:#f8f7f2;fill-rule:nonzero;" />
                    </g>
                </g>
                <g transform="matrix(48.075775,13.737535,-13.737535,48.075775,405.307874,1342.087424)">
                    <g id="Subline18" serif:id="Subline">
                        <path
                            d="M0.269,-0L0.036,-0L0.036,-0.032C0.044,-0.033 0.051,-0.034 0.059,-0.034C0.067,-0.035 0.074,-0.036 0.08,-0.038C0.089,-0.041 0.096,-0.046 0.1,-0.053C0.105,-0.061 0.107,-0.07 0.107,-0.082L0.107,-0.379C0.107,-0.39 0.105,-0.399 0.1,-0.408C0.095,-0.417 0.089,-0.424 0.08,-0.43C0.074,-0.434 0.065,-0.437 0.053,-0.44C0.042,-0.442 0.031,-0.444 0.021,-0.445L0.021,-0.477L0.191,-0.487L0.198,-0.48L0.198,-0.088C0.198,-0.076 0.2,-0.067 0.204,-0.06C0.209,-0.052 0.216,-0.047 0.225,-0.043C0.232,-0.04 0.239,-0.038 0.246,-0.036C0.253,-0.034 0.261,-0.033 0.269,-0.032L0.269,-0ZM0.208,-0.677C0.208,-0.659 0.201,-0.642 0.189,-0.629C0.177,-0.615 0.162,-0.608 0.144,-0.608C0.127,-0.608 0.113,-0.615 0.101,-0.628C0.089,-0.641 0.083,-0.656 0.083,-0.673C0.083,-0.691 0.089,-0.706 0.101,-0.72C0.113,-0.733 0.127,-0.74 0.144,-0.74C0.163,-0.74 0.178,-0.733 0.19,-0.721C0.202,-0.708 0.208,-0.694 0.208,-0.677Z"
                            style="fill:#f8f7f2;fill-rule:nonzero;" />
                    </g>
                </g>
                <g transform="matrix(48.601712,11.741959,-11.741959,48.601712,419.354622,1346.231521)">
                    <g id="Subline19" serif:id="Subline">
                        <path
                            d="M0.504,-0.246C0.504,-0.212 0.499,-0.178 0.488,-0.146C0.478,-0.113 0.462,-0.085 0.442,-0.062C0.42,-0.036 0.394,-0.017 0.364,-0.004C0.335,0.008 0.301,0.015 0.265,0.015C0.234,0.015 0.205,0.009 0.177,-0.003C0.15,-0.014 0.125,-0.031 0.104,-0.053C0.082,-0.075 0.066,-0.102 0.053,-0.133C0.04,-0.164 0.034,-0.2 0.034,-0.239C0.034,-0.314 0.056,-0.375 0.1,-0.423C0.144,-0.471 0.201,-0.495 0.272,-0.495C0.339,-0.495 0.395,-0.472 0.439,-0.427C0.483,-0.382 0.504,-0.321 0.504,-0.246ZM0.403,-0.245C0.403,-0.269 0.401,-0.295 0.396,-0.322C0.391,-0.349 0.384,-0.372 0.374,-0.391C0.364,-0.411 0.35,-0.427 0.333,-0.44C0.316,-0.452 0.295,-0.458 0.271,-0.458C0.246,-0.458 0.225,-0.452 0.207,-0.439C0.189,-0.427 0.175,-0.41 0.164,-0.389C0.153,-0.369 0.146,-0.346 0.142,-0.321C0.137,-0.295 0.135,-0.271 0.135,-0.247C0.135,-0.216 0.138,-0.187 0.143,-0.16C0.148,-0.134 0.156,-0.11 0.167,-0.089C0.178,-0.069 0.192,-0.052 0.209,-0.04C0.226,-0.028 0.246,-0.022 0.271,-0.022C0.312,-0.022 0.344,-0.042 0.368,-0.082C0.391,-0.121 0.403,-0.175 0.403,-0.245Z"
                            style="fill:#f8f7f2;fill-rule:nonzero;" />
                    </g>
                </g>
                <g transform="matrix(49.18425,8.994974,-8.994974,49.18425,445.564418,1352.604045)">
                    <g id="Subline20" serif:id="Subline">
                        <path
                            d="M0.567,-0L0.331,-0L0.331,-0.032C0.339,-0.033 0.347,-0.034 0.356,-0.034C0.365,-0.035 0.372,-0.036 0.378,-0.038C0.387,-0.041 0.394,-0.046 0.398,-0.053C0.403,-0.061 0.405,-0.07 0.405,-0.082L0.405,-0.33C0.405,-0.364 0.397,-0.39 0.381,-0.409C0.365,-0.427 0.345,-0.437 0.322,-0.437C0.305,-0.437 0.289,-0.434 0.274,-0.428C0.26,-0.423 0.247,-0.417 0.236,-0.409C0.226,-0.401 0.217,-0.393 0.211,-0.385C0.204,-0.376 0.2,-0.369 0.197,-0.364L0.197,-0.087C0.197,-0.076 0.199,-0.067 0.204,-0.06C0.208,-0.052 0.215,-0.047 0.224,-0.043C0.231,-0.04 0.238,-0.037 0.246,-0.036C0.254,-0.034 0.263,-0.033 0.271,-0.032L0.271,-0L0.035,-0L0.035,-0.032C0.043,-0.033 0.05,-0.034 0.058,-0.034C0.066,-0.035 0.073,-0.036 0.079,-0.038C0.088,-0.041 0.095,-0.046 0.099,-0.053C0.104,-0.061 0.106,-0.07 0.106,-0.082L0.106,-0.379C0.106,-0.39 0.104,-0.401 0.099,-0.41C0.094,-0.419 0.088,-0.427 0.079,-0.433C0.073,-0.437 0.066,-0.439 0.057,-0.441C0.049,-0.443 0.04,-0.444 0.03,-0.445L0.03,-0.477L0.19,-0.487L0.197,-0.48L0.197,-0.413L0.199,-0.413C0.207,-0.42 0.217,-0.43 0.229,-0.441C0.24,-0.452 0.251,-0.46 0.262,-0.467C0.274,-0.475 0.288,-0.482 0.305,-0.487C0.321,-0.492 0.34,-0.495 0.361,-0.495C0.407,-0.495 0.441,-0.48 0.464,-0.451C0.486,-0.423 0.497,-0.384 0.497,-0.336L0.497,-0.086C0.497,-0.075 0.499,-0.065 0.503,-0.058C0.507,-0.051 0.514,-0.046 0.523,-0.042C0.531,-0.039 0.538,-0.036 0.543,-0.035C0.549,-0.034 0.557,-0.033 0.567,-0.032L0.567,-0Z"
                            style="fill:#f8f7f2;fill-rule:nonzero;" />
                    </g>
                </g>
                <g transform="matrix(49.740478,5.087714,-5.087714,49.740478,486.56388,1359.570098)">
                    <g id="Subline21" serif:id="Subline">
                        <path
                            d="M0.504,-0.246C0.504,-0.212 0.499,-0.178 0.488,-0.146C0.478,-0.113 0.462,-0.085 0.442,-0.062C0.42,-0.036 0.394,-0.017 0.364,-0.004C0.335,0.008 0.301,0.015 0.265,0.015C0.234,0.015 0.205,0.009 0.177,-0.003C0.15,-0.014 0.125,-0.031 0.104,-0.053C0.082,-0.075 0.066,-0.102 0.053,-0.133C0.04,-0.164 0.034,-0.2 0.034,-0.239C0.034,-0.314 0.056,-0.375 0.1,-0.423C0.144,-0.471 0.201,-0.495 0.272,-0.495C0.339,-0.495 0.395,-0.472 0.439,-0.427C0.483,-0.382 0.504,-0.321 0.504,-0.246ZM0.403,-0.245C0.403,-0.269 0.401,-0.295 0.396,-0.322C0.391,-0.349 0.384,-0.372 0.374,-0.391C0.364,-0.411 0.35,-0.427 0.333,-0.44C0.316,-0.452 0.295,-0.458 0.271,-0.458C0.246,-0.458 0.225,-0.452 0.207,-0.439C0.189,-0.427 0.175,-0.41 0.164,-0.389C0.153,-0.369 0.146,-0.346 0.142,-0.321C0.137,-0.295 0.135,-0.271 0.135,-0.247C0.135,-0.216 0.138,-0.187 0.143,-0.16C0.148,-0.134 0.156,-0.11 0.167,-0.089C0.178,-0.069 0.192,-0.052 0.209,-0.04C0.226,-0.028 0.246,-0.022 0.271,-0.022C0.312,-0.022 0.344,-0.042 0.368,-0.082C0.391,-0.121 0.403,-0.175 0.403,-0.245Z"
                            style="fill:#f8f7f2;fill-rule:nonzero;" />
                    </g>
                </g>
                <g transform="matrix(49.922001,2.791741,-2.791741,49.922001,513.351612,1362.232518)">
                    <g id="Subline22" serif:id="Subline">
                        <path
                            d="M0.394,-0.698C0.394,-0.683 0.39,-0.671 0.382,-0.661C0.374,-0.651 0.362,-0.646 0.346,-0.646C0.336,-0.646 0.327,-0.648 0.32,-0.652C0.312,-0.656 0.305,-0.662 0.298,-0.669C0.292,-0.676 0.286,-0.684 0.28,-0.693C0.275,-0.702 0.27,-0.71 0.266,-0.715C0.244,-0.714 0.227,-0.699 0.216,-0.67C0.204,-0.64 0.198,-0.593 0.198,-0.529L0.198,-0.479L0.322,-0.479L0.322,-0.433L0.198,-0.433L0.198,-0.087C0.198,-0.076 0.2,-0.066 0.204,-0.059C0.209,-0.052 0.216,-0.047 0.225,-0.043C0.233,-0.04 0.243,-0.038 0.256,-0.036C0.269,-0.034 0.281,-0.033 0.29,-0.032L0.29,-0L0.036,-0L0.036,-0.032C0.044,-0.033 0.051,-0.034 0.059,-0.034C0.067,-0.035 0.074,-0.036 0.08,-0.038C0.089,-0.041 0.096,-0.046 0.1,-0.053C0.105,-0.061 0.107,-0.07 0.107,-0.082L0.107,-0.433L0.012,-0.433L0.012,-0.479L0.107,-0.479L0.107,-0.51C0.107,-0.583 0.126,-0.643 0.164,-0.688C0.202,-0.734 0.249,-0.756 0.306,-0.756C0.335,-0.756 0.357,-0.751 0.372,-0.739C0.386,-0.728 0.394,-0.714 0.394,-0.698Z"
                            style="fill:#f8f7f2;fill-rule:nonzero;" />
                    </g>
                </g>
                <g transform="matrix(49.996405,-0.599531,0.599531,49.996405,541.67575,1363.767082)">
                    <g id="Subline23" serif:id="Subline">
                        <path
                            d="M0.694,-0L0.405,-0L0.405,-0.035C0.431,-0.036 0.452,-0.04 0.469,-0.044C0.485,-0.049 0.494,-0.055 0.494,-0.062C0.494,-0.065 0.493,-0.069 0.493,-0.073C0.492,-0.077 0.491,-0.081 0.49,-0.084L0.432,-0.24L0.189,-0.24C0.18,-0.217 0.173,-0.197 0.167,-0.18C0.162,-0.163 0.156,-0.148 0.152,-0.133C0.148,-0.119 0.145,-0.108 0.143,-0.099C0.141,-0.09 0.141,-0.083 0.141,-0.078C0.141,-0.065 0.151,-0.055 0.171,-0.047C0.192,-0.04 0.215,-0.036 0.241,-0.035L0.241,-0L-0.02,-0L-0.02,-0.035C-0.012,-0.035 -0.001,-0.037 0.012,-0.04C0.024,-0.043 0.035,-0.048 0.043,-0.053C0.056,-0.062 0.066,-0.071 0.073,-0.08C0.08,-0.09 0.087,-0.103 0.094,-0.12C0.129,-0.207 0.167,-0.305 0.209,-0.413C0.251,-0.521 0.289,-0.618 0.322,-0.703L0.361,-0.703L0.592,-0.105C0.597,-0.092 0.602,-0.082 0.608,-0.074C0.615,-0.066 0.623,-0.059 0.634,-0.051C0.642,-0.047 0.652,-0.043 0.664,-0.04C0.676,-0.037 0.686,-0.035 0.694,-0.035L0.694,-0ZM0.415,-0.283L0.31,-0.552L0.207,-0.283L0.415,-0.283Z"
                            style="fill:#f8f7f2;fill-rule:nonzero;" />
                    </g>
                </g>
                <g transform="matrix(49.893231,-3.265805,3.265805,49.893231,575.185323,1363.210865)">
                    <g id="Subline24" serif:id="Subline">
                        <path
                            d="M0.404,-0.419C0.404,-0.403 0.4,-0.388 0.392,-0.375C0.383,-0.362 0.371,-0.356 0.354,-0.356C0.336,-0.356 0.322,-0.361 0.312,-0.37C0.303,-0.38 0.298,-0.39 0.298,-0.401C0.298,-0.409 0.298,-0.415 0.3,-0.421C0.301,-0.427 0.302,-0.433 0.303,-0.438C0.287,-0.438 0.27,-0.432 0.249,-0.42C0.229,-0.408 0.211,-0.39 0.197,-0.367L0.197,-0.087C0.197,-0.076 0.199,-0.066 0.203,-0.059C0.208,-0.052 0.215,-0.047 0.224,-0.043C0.232,-0.04 0.243,-0.037 0.256,-0.036C0.268,-0.034 0.28,-0.033 0.289,-0.032L0.289,-0L0.035,-0L0.035,-0.032C0.043,-0.033 0.05,-0.034 0.058,-0.034C0.066,-0.035 0.073,-0.036 0.079,-0.038C0.088,-0.041 0.095,-0.046 0.099,-0.053C0.104,-0.061 0.106,-0.07 0.106,-0.082L0.106,-0.379C0.106,-0.389 0.104,-0.399 0.099,-0.409C0.094,-0.419 0.088,-0.427 0.079,-0.433C0.073,-0.437 0.066,-0.439 0.057,-0.441C0.049,-0.443 0.04,-0.444 0.03,-0.445L0.03,-0.477L0.19,-0.487L0.197,-0.48L0.197,-0.413L0.199,-0.413C0.219,-0.439 0.242,-0.459 0.267,-0.473C0.291,-0.486 0.314,-0.493 0.334,-0.493C0.355,-0.493 0.372,-0.486 0.385,-0.473C0.397,-0.46 0.404,-0.442 0.404,-0.419Z"
                            style="fill:#f8f7f2;fill-rule:nonzero;" />
                    </g>
                </g>
                <g transform="matrix(49.746471,-5.028778,5.028778,49.746471,595.613687,1361.853373)">
                    <g id="Subline25" serif:id="Subline">
                        <path
                            d="M0.333,-0.021C0.311,-0.012 0.291,-0.005 0.272,0.001C0.254,0.007 0.23,0.01 0.203,0.01C0.163,0.01 0.134,0 0.118,-0.02C0.101,-0.041 0.093,-0.069 0.093,-0.106L0.093,-0.433L0.006,-0.433L0.006,-0.479L0.095,-0.479L0.095,-0.629L0.184,-0.629L0.184,-0.479L0.322,-0.479L0.322,-0.433L0.185,-0.433L0.185,-0.164C0.185,-0.143 0.186,-0.127 0.187,-0.113C0.189,-0.1 0.192,-0.088 0.198,-0.078C0.203,-0.068 0.211,-0.061 0.221,-0.056C0.232,-0.051 0.246,-0.049 0.263,-0.049C0.271,-0.049 0.283,-0.05 0.299,-0.051C0.315,-0.052 0.326,-0.054 0.333,-0.057L0.333,-0.021Z"
                            style="fill:#f8f7f2;fill-rule:nonzero;" />
                    </g>
                </g>
                <g transform="matrix(49.562997,-6.596159,6.596159,49.562997,612.82599,1360.088501)">
                    <g id="Subline26" serif:id="Subline">
                        <path
                            d="M0.269,-0L0.036,-0L0.036,-0.032C0.044,-0.033 0.051,-0.034 0.059,-0.034C0.067,-0.035 0.074,-0.036 0.08,-0.038C0.089,-0.041 0.096,-0.046 0.1,-0.053C0.105,-0.061 0.107,-0.07 0.107,-0.082L0.107,-0.379C0.107,-0.39 0.105,-0.399 0.1,-0.408C0.095,-0.417 0.089,-0.424 0.08,-0.43C0.074,-0.434 0.065,-0.437 0.053,-0.44C0.042,-0.442 0.031,-0.444 0.021,-0.445L0.021,-0.477L0.191,-0.487L0.198,-0.48L0.198,-0.088C0.198,-0.076 0.2,-0.067 0.204,-0.06C0.209,-0.052 0.216,-0.047 0.225,-0.043C0.232,-0.04 0.239,-0.038 0.246,-0.036C0.253,-0.034 0.261,-0.033 0.269,-0.032L0.269,-0ZM0.208,-0.677C0.208,-0.659 0.201,-0.642 0.189,-0.629C0.177,-0.615 0.162,-0.608 0.144,-0.608C0.127,-0.608 0.113,-0.615 0.101,-0.628C0.089,-0.641 0.083,-0.656 0.083,-0.673C0.083,-0.691 0.089,-0.706 0.101,-0.72C0.113,-0.733 0.127,-0.74 0.144,-0.74C0.163,-0.74 0.178,-0.733 0.19,-0.721C0.202,-0.708 0.208,-0.694 0.208,-0.677Z"
                            style="fill:#f8f7f2;fill-rule:nonzero;" />
                    </g>
                </g>
                <g transform="matrix(49.236368,-8.705172,8.705172,49.236368,627.387205,1358.298144)">
                    <g id="Subline27" serif:id="Subline">
                        <path
                            d="M0.515,-0.043C0.522,-0.041 0.529,-0.038 0.536,-0.036C0.542,-0.034 0.55,-0.033 0.559,-0.032L0.559,-0L0.328,-0L0.328,-0.032C0.335,-0.033 0.343,-0.034 0.35,-0.034C0.357,-0.035 0.364,-0.037 0.37,-0.039C0.379,-0.042 0.385,-0.047 0.39,-0.054C0.394,-0.061 0.396,-0.071 0.396,-0.083L0.396,-0.391C0.396,-0.401 0.395,-0.409 0.393,-0.415C0.391,-0.421 0.387,-0.428 0.382,-0.435L0.198,-0.435L0.198,-0.087C0.198,-0.076 0.2,-0.067 0.204,-0.06C0.209,-0.052 0.216,-0.047 0.225,-0.043C0.233,-0.041 0.24,-0.038 0.249,-0.036C0.257,-0.034 0.265,-0.033 0.274,-0.032L0.274,-0L0.036,-0L0.036,-0.032C0.044,-0.033 0.051,-0.034 0.059,-0.034C0.067,-0.035 0.074,-0.037 0.08,-0.039C0.089,-0.042 0.096,-0.047 0.1,-0.054C0.105,-0.061 0.107,-0.071 0.107,-0.083L0.107,-0.433L0.012,-0.433L0.012,-0.479L0.107,-0.479L0.107,-0.491C0.107,-0.534 0.113,-0.572 0.125,-0.604C0.136,-0.635 0.155,-0.665 0.181,-0.692C0.197,-0.71 0.219,-0.725 0.247,-0.738C0.275,-0.75 0.305,-0.757 0.334,-0.757C0.381,-0.757 0.417,-0.75 0.442,-0.735C0.467,-0.72 0.479,-0.7 0.479,-0.675C0.479,-0.66 0.475,-0.648 0.466,-0.637C0.458,-0.627 0.447,-0.622 0.434,-0.622C0.42,-0.622 0.408,-0.625 0.399,-0.631C0.39,-0.637 0.383,-0.645 0.377,-0.654C0.372,-0.663 0.368,-0.674 0.364,-0.687C0.361,-0.7 0.358,-0.71 0.355,-0.718L0.329,-0.718C0.311,-0.718 0.294,-0.715 0.28,-0.709C0.265,-0.702 0.251,-0.691 0.238,-0.674C0.225,-0.659 0.216,-0.638 0.208,-0.612C0.201,-0.586 0.198,-0.556 0.198,-0.52L0.198,-0.479L0.359,-0.479L0.48,-0.487L0.487,-0.48L0.487,-0.088C0.487,-0.077 0.49,-0.068 0.494,-0.06C0.498,-0.053 0.505,-0.047 0.515,-0.043Z"
                            style="fill:#f8f7f2;fill-rule:nonzero;" />
                    </g>
                </g>
                <g transform="matrix(48.700786,-11.324022,11.324022,48.700786,656.080862,1353.151368)">
                    <g id="Subline28" serif:id="Subline">
                        <path
                            d="M0.258,0.013C0.188,0.013 0.134,-0.01 0.094,-0.057C0.055,-0.103 0.035,-0.165 0.035,-0.243C0.035,-0.277 0.04,-0.308 0.051,-0.338C0.062,-0.367 0.077,-0.394 0.097,-0.418C0.116,-0.441 0.14,-0.46 0.169,-0.474C0.198,-0.488 0.23,-0.495 0.264,-0.495C0.311,-0.495 0.35,-0.484 0.379,-0.461C0.409,-0.439 0.424,-0.408 0.424,-0.369C0.424,-0.352 0.42,-0.338 0.412,-0.325C0.404,-0.313 0.391,-0.307 0.374,-0.307C0.354,-0.307 0.339,-0.312 0.329,-0.321C0.318,-0.331 0.313,-0.342 0.313,-0.354C0.313,-0.369 0.315,-0.384 0.319,-0.399C0.323,-0.415 0.325,-0.426 0.326,-0.433C0.32,-0.443 0.311,-0.45 0.3,-0.453C0.288,-0.457 0.276,-0.458 0.262,-0.458C0.247,-0.458 0.232,-0.455 0.218,-0.448C0.203,-0.442 0.19,-0.43 0.176,-0.412C0.164,-0.395 0.154,-0.373 0.147,-0.346C0.139,-0.318 0.136,-0.285 0.136,-0.247C0.136,-0.186 0.149,-0.137 0.176,-0.098C0.203,-0.06 0.238,-0.041 0.282,-0.041C0.313,-0.041 0.34,-0.049 0.361,-0.064C0.382,-0.079 0.402,-0.102 0.42,-0.133L0.452,-0.112C0.43,-0.074 0.402,-0.043 0.367,-0.021C0.332,0.001 0.295,0.013 0.258,0.013Z"
                            style="fill:#f8f7f2;fill-rule:nonzero;" />
                    </g>
                </g>
                <g transform="matrix(48.115606,-13.597371,13.597371,48.115606,678.149518,1348.087137)">
                    <g id="Subline29" serif:id="Subline">
                        <path
                            d="M0.491,-0.009C0.476,-0.003 0.462,0.001 0.451,0.005C0.439,0.008 0.426,0.01 0.412,0.01C0.386,0.01 0.366,0.004 0.351,-0.008C0.336,-0.02 0.326,-0.037 0.322,-0.06L0.319,-0.06C0.298,-0.037 0.275,-0.019 0.251,-0.006C0.226,0.006 0.197,0.012 0.163,0.012C0.127,0.012 0.097,0.001 0.074,-0.021C0.051,-0.043 0.039,-0.072 0.039,-0.108C0.039,-0.126 0.042,-0.143 0.047,-0.158C0.052,-0.172 0.06,-0.186 0.07,-0.197C0.078,-0.207 0.089,-0.216 0.103,-0.223C0.116,-0.231 0.128,-0.237 0.14,-0.242C0.155,-0.247 0.184,-0.257 0.229,-0.272C0.274,-0.287 0.304,-0.299 0.32,-0.308L0.32,-0.356C0.32,-0.36 0.319,-0.368 0.317,-0.38C0.315,-0.392 0.312,-0.404 0.306,-0.415C0.299,-0.427 0.29,-0.437 0.278,-0.446C0.266,-0.455 0.249,-0.459 0.228,-0.459C0.213,-0.459 0.199,-0.457 0.186,-0.452C0.173,-0.447 0.164,-0.442 0.159,-0.436C0.159,-0.43 0.16,-0.42 0.163,-0.407C0.166,-0.395 0.168,-0.383 0.168,-0.372C0.168,-0.361 0.163,-0.35 0.153,-0.341C0.142,-0.331 0.128,-0.327 0.11,-0.327C0.094,-0.327 0.082,-0.332 0.074,-0.344C0.066,-0.356 0.062,-0.368 0.062,-0.383C0.062,-0.398 0.068,-0.412 0.078,-0.426C0.089,-0.439 0.103,-0.452 0.12,-0.462C0.134,-0.472 0.152,-0.479 0.173,-0.486C0.194,-0.492 0.214,-0.495 0.234,-0.495C0.261,-0.495 0.285,-0.493 0.305,-0.49C0.326,-0.486 0.344,-0.478 0.361,-0.465C0.377,-0.453 0.39,-0.437 0.399,-0.416C0.407,-0.396 0.412,-0.369 0.412,-0.336C0.412,-0.29 0.411,-0.249 0.41,-0.213C0.409,-0.177 0.409,-0.137 0.409,-0.095C0.409,-0.082 0.411,-0.072 0.415,-0.064C0.42,-0.057 0.426,-0.051 0.436,-0.045C0.44,-0.042 0.448,-0.041 0.459,-0.041C0.469,-0.04 0.48,-0.04 0.491,-0.04L0.491,-0.009ZM0.321,-0.267C0.293,-0.258 0.269,-0.25 0.248,-0.243C0.227,-0.235 0.208,-0.225 0.19,-0.213C0.174,-0.202 0.161,-0.189 0.151,-0.174C0.142,-0.159 0.137,-0.141 0.137,-0.12C0.137,-0.093 0.144,-0.073 0.158,-0.061C0.173,-0.048 0.191,-0.042 0.212,-0.042C0.236,-0.042 0.256,-0.047 0.273,-0.058C0.291,-0.07 0.306,-0.083 0.318,-0.098L0.321,-0.267Z"
                            style="fill:#f8f7f2;fill-rule:nonzero;" />
                    </g>
                </g>
                <g transform="matrix(47.585095,-15.35118,15.35118,47.585095,702.395297,1341.132039)">
                    <g id="Subline30" serif:id="Subline">
                        <path
                            d="M0.261,-0L0.026,-0L0.026,-0.032C0.033,-0.033 0.041,-0.034 0.05,-0.034C0.058,-0.035 0.065,-0.036 0.071,-0.038C0.08,-0.041 0.087,-0.046 0.091,-0.053C0.096,-0.061 0.098,-0.07 0.098,-0.082L0.098,-0.64C0.098,-0.651 0.096,-0.662 0.091,-0.673C0.086,-0.683 0.079,-0.691 0.071,-0.697C0.065,-0.701 0.054,-0.704 0.039,-0.708C0.023,-0.711 0.01,-0.713 0.001,-0.713L0.001,-0.745L0.182,-0.756L0.189,-0.749L0.189,-0.088C0.189,-0.076 0.191,-0.067 0.195,-0.06C0.2,-0.052 0.206,-0.047 0.216,-0.043C0.223,-0.04 0.23,-0.037 0.237,-0.036C0.244,-0.034 0.252,-0.033 0.261,-0.032L0.261,-0Z"
                            style="fill:#f8f7f2;fill-rule:nonzero;" />
                    </g>
                </g>
                <g transform="matrix(45.989077,-19.62154,19.62154,45.989077,738.744481,1328.555267)">
                    <g id="Subline31" serif:id="Subline">
                        <path
                            d="M0.479,-0.318C0.494,-0.302 0.504,-0.284 0.511,-0.264C0.518,-0.245 0.522,-0.222 0.522,-0.197C0.522,-0.136 0.499,-0.085 0.454,-0.045C0.409,-0.006 0.353,0.014 0.286,0.014C0.255,0.014 0.224,0.009 0.193,-0C0.162,-0.01 0.135,-0.021 0.113,-0.035L0.092,0L0.053,0L0.046,-0.237L0.085,-0.237C0.094,-0.208 0.103,-0.181 0.114,-0.157C0.125,-0.134 0.139,-0.112 0.157,-0.091C0.174,-0.072 0.194,-0.057 0.217,-0.045C0.239,-0.034 0.265,-0.028 0.295,-0.028C0.318,-0.028 0.337,-0.031 0.354,-0.037C0.371,-0.043 0.385,-0.051 0.395,-0.062C0.405,-0.073 0.413,-0.085 0.418,-0.1C0.423,-0.114 0.426,-0.131 0.426,-0.15C0.426,-0.178 0.418,-0.203 0.402,-0.227C0.387,-0.251 0.363,-0.269 0.333,-0.282C0.311,-0.29 0.287,-0.3 0.26,-0.31C0.232,-0.32 0.209,-0.33 0.189,-0.339C0.15,-0.356 0.12,-0.379 0.098,-0.408C0.076,-0.436 0.065,-0.474 0.065,-0.52C0.065,-0.546 0.071,-0.57 0.082,-0.593C0.092,-0.616 0.108,-0.636 0.127,-0.654C0.146,-0.671 0.169,-0.684 0.194,-0.694C0.22,-0.704 0.247,-0.708 0.275,-0.708C0.307,-0.708 0.335,-0.704 0.361,-0.694C0.386,-0.684 0.409,-0.673 0.43,-0.66L0.45,-0.693L0.489,-0.693L0.493,-0.463L0.453,-0.463C0.446,-0.489 0.438,-0.514 0.429,-0.539C0.42,-0.563 0.408,-0.584 0.394,-0.604C0.38,-0.623 0.363,-0.638 0.343,-0.649C0.323,-0.66 0.298,-0.666 0.269,-0.666C0.238,-0.666 0.211,-0.656 0.189,-0.636C0.168,-0.616 0.157,-0.592 0.157,-0.563C0.157,-0.534 0.164,-0.509 0.178,-0.489C0.192,-0.469 0.212,-0.453 0.239,-0.44C0.263,-0.429 0.286,-0.419 0.309,-0.411C0.332,-0.403 0.354,-0.394 0.375,-0.384C0.395,-0.376 0.414,-0.366 0.432,-0.355C0.45,-0.345 0.466,-0.332 0.479,-0.318Z"
                            style="fill:#f8f7f2;fill-rule:nonzero;" />
                    </g>
                </g>
                <g transform="matrix(45.132959,-21.517807,21.517807,45.132959,764.474423,1317.428299)">
                    <g id="Subline32" serif:id="Subline">
                        <path
                            d="M0.269,-0L0.036,-0L0.036,-0.032C0.044,-0.033 0.051,-0.034 0.059,-0.034C0.067,-0.035 0.074,-0.036 0.08,-0.038C0.089,-0.041 0.096,-0.046 0.1,-0.053C0.105,-0.061 0.107,-0.07 0.107,-0.082L0.107,-0.379C0.107,-0.39 0.105,-0.399 0.1,-0.408C0.095,-0.417 0.089,-0.424 0.08,-0.43C0.074,-0.434 0.065,-0.437 0.053,-0.44C0.042,-0.442 0.031,-0.444 0.021,-0.445L0.021,-0.477L0.191,-0.487L0.198,-0.48L0.198,-0.088C0.198,-0.076 0.2,-0.067 0.204,-0.06C0.209,-0.052 0.216,-0.047 0.225,-0.043C0.232,-0.04 0.239,-0.038 0.246,-0.036C0.253,-0.034 0.261,-0.033 0.269,-0.032L0.269,-0ZM0.208,-0.677C0.208,-0.659 0.201,-0.642 0.189,-0.629C0.177,-0.615 0.162,-0.608 0.144,-0.608C0.127,-0.608 0.113,-0.615 0.101,-0.628C0.089,-0.641 0.083,-0.656 0.083,-0.673C0.083,-0.691 0.089,-0.706 0.101,-0.72C0.113,-0.733 0.127,-0.74 0.144,-0.74C0.163,-0.74 0.178,-0.733 0.19,-0.721C0.202,-0.708 0.208,-0.694 0.208,-0.677Z"
                            style="fill:#f8f7f2;fill-rule:nonzero;" />
                    </g>
                </g>
                <g transform="matrix(43.803273,-24.109609,24.109609,43.803273,777.902983,1311.502494)">
                    <g id="Subline33" serif:id="Subline">
                        <path
                            d="M0.86,-0L0.625,-0L0.625,-0.032C0.632,-0.033 0.64,-0.034 0.648,-0.034C0.655,-0.035 0.662,-0.036 0.668,-0.038C0.677,-0.041 0.684,-0.046 0.688,-0.053C0.693,-0.061 0.695,-0.07 0.695,-0.082L0.695,-0.331C0.695,-0.364 0.687,-0.391 0.672,-0.409C0.656,-0.427 0.637,-0.437 0.614,-0.437C0.598,-0.437 0.583,-0.434 0.569,-0.429C0.555,-0.424 0.542,-0.417 0.53,-0.409C0.521,-0.402 0.513,-0.394 0.507,-0.385C0.5,-0.377 0.495,-0.37 0.492,-0.365L0.492,-0.087C0.492,-0.076 0.494,-0.066 0.498,-0.059C0.502,-0.052 0.509,-0.046 0.518,-0.042C0.526,-0.039 0.532,-0.037 0.538,-0.035C0.544,-0.034 0.552,-0.033 0.562,-0.032L0.562,-0L0.332,-0L0.332,-0.032C0.34,-0.033 0.347,-0.034 0.354,-0.034C0.361,-0.035 0.367,-0.036 0.373,-0.038C0.382,-0.041 0.389,-0.046 0.393,-0.053C0.398,-0.061 0.4,-0.07 0.4,-0.082L0.4,-0.331C0.4,-0.364 0.392,-0.391 0.377,-0.409C0.361,-0.427 0.342,-0.437 0.319,-0.437C0.303,-0.437 0.288,-0.434 0.274,-0.429C0.26,-0.424 0.247,-0.417 0.235,-0.408C0.226,-0.401 0.218,-0.393 0.211,-0.384C0.205,-0.375 0.2,-0.368 0.197,-0.364L0.197,-0.088C0.197,-0.077 0.199,-0.068 0.204,-0.06C0.208,-0.053 0.215,-0.047 0.224,-0.043C0.231,-0.04 0.238,-0.037 0.245,-0.036C0.252,-0.034 0.26,-0.033 0.269,-0.032L0.269,-0L0.035,-0L0.035,-0.032C0.043,-0.033 0.05,-0.034 0.058,-0.034C0.066,-0.035 0.073,-0.036 0.079,-0.038C0.088,-0.041 0.095,-0.046 0.099,-0.053C0.104,-0.061 0.106,-0.07 0.106,-0.082L0.106,-0.381C0.106,-0.392 0.104,-0.401 0.099,-0.409C0.094,-0.418 0.088,-0.425 0.079,-0.431C0.073,-0.435 0.065,-0.438 0.056,-0.44C0.047,-0.443 0.038,-0.444 0.028,-0.445L0.028,-0.477L0.189,-0.487L0.196,-0.48L0.196,-0.412L0.199,-0.412C0.207,-0.42 0.217,-0.429 0.229,-0.44C0.241,-0.451 0.252,-0.46 0.262,-0.467C0.273,-0.475 0.287,-0.482 0.304,-0.487C0.322,-0.492 0.34,-0.495 0.36,-0.495C0.391,-0.495 0.418,-0.486 0.44,-0.469C0.463,-0.453 0.479,-0.432 0.489,-0.409C0.5,-0.42 0.511,-0.43 0.52,-0.439C0.529,-0.447 0.541,-0.457 0.555,-0.466C0.568,-0.475 0.582,-0.482 0.599,-0.487C0.616,-0.492 0.634,-0.495 0.655,-0.495C0.695,-0.495 0.728,-0.481 0.751,-0.455C0.775,-0.428 0.787,-0.387 0.787,-0.332L0.787,-0.087C0.787,-0.076 0.789,-0.066 0.793,-0.059C0.797,-0.052 0.804,-0.046 0.813,-0.042C0.82,-0.039 0.828,-0.037 0.835,-0.035C0.843,-0.034 0.851,-0.033 0.86,-0.032L0.86,-0Z"
                            style="fill:#f8f7f2;fill-rule:nonzero;" />
                    </g>
                </g>
                <g transform="matrix(41.990783,-27.143584,27.143584,41.990783,816.32505,1290.046942)">
                    <g id="Subline34" serif:id="Subline">
                        <path
                            d="M0.551,-0.009L0.395,0.002L0.387,-0.005L0.387,-0.066L0.384,-0.066C0.376,-0.058 0.368,-0.049 0.358,-0.04C0.348,-0.031 0.337,-0.022 0.324,-0.015C0.31,-0.006 0.295,0.001 0.282,0.005C0.268,0.01 0.249,0.012 0.224,0.012C0.181,0.012 0.149,-0.002 0.126,-0.03C0.104,-0.057 0.093,-0.098 0.093,-0.151L0.093,-0.381C0.093,-0.393 0.091,-0.403 0.086,-0.411C0.082,-0.419 0.075,-0.426 0.067,-0.432C0.061,-0.436 0.054,-0.438 0.045,-0.44C0.036,-0.442 0.027,-0.443 0.017,-0.444L0.017,-0.476L0.178,-0.487L0.185,-0.48L0.185,-0.146C0.185,-0.111 0.193,-0.085 0.208,-0.067C0.224,-0.05 0.243,-0.041 0.265,-0.041C0.283,-0.041 0.299,-0.044 0.312,-0.049C0.326,-0.055 0.338,-0.061 0.348,-0.069C0.356,-0.076 0.364,-0.083 0.371,-0.091C0.378,-0.098 0.383,-0.105 0.386,-0.112L0.386,-0.385C0.386,-0.396 0.384,-0.405 0.379,-0.413C0.375,-0.422 0.368,-0.429 0.36,-0.435C0.354,-0.438 0.346,-0.441 0.334,-0.442C0.323,-0.442 0.31,-0.443 0.295,-0.444L0.295,-0.476L0.47,-0.487L0.478,-0.48L0.478,-0.098C0.478,-0.087 0.48,-0.078 0.484,-0.07C0.489,-0.062 0.495,-0.055 0.503,-0.05C0.509,-0.046 0.516,-0.044 0.524,-0.043C0.533,-0.042 0.542,-0.041 0.551,-0.041L0.551,-0.009Z"
                            style="fill:#f8f7f2;fill-rule:nonzero;" />
                    </g>
                </g>
                <g transform="matrix(40.829742,-28.860565,28.860565,40.829742,840.454789,1274.249222)">
                    <g id="Subline35" serif:id="Subline">
                        <path
                            d="M0.261,-0L0.026,-0L0.026,-0.032C0.033,-0.033 0.041,-0.034 0.05,-0.034C0.058,-0.035 0.065,-0.036 0.071,-0.038C0.08,-0.041 0.087,-0.046 0.091,-0.053C0.096,-0.061 0.098,-0.07 0.098,-0.082L0.098,-0.64C0.098,-0.651 0.096,-0.662 0.091,-0.673C0.086,-0.683 0.079,-0.691 0.071,-0.697C0.065,-0.701 0.054,-0.704 0.039,-0.708C0.023,-0.711 0.01,-0.713 0.001,-0.713L0.001,-0.745L0.182,-0.756L0.189,-0.749L0.189,-0.088C0.189,-0.076 0.191,-0.067 0.195,-0.06C0.2,-0.052 0.206,-0.047 0.216,-0.043C0.223,-0.04 0.23,-0.037 0.237,-0.036C0.244,-0.034 0.252,-0.033 0.261,-0.032L0.261,-0Z"
                            style="fill:#f8f7f2;fill-rule:nonzero;" />
                    </g>
                </g>
                <g transform="matrix(39.613707,-30.508264,30.508264,39.613707,852.154456,1266.118444)">
                    <g id="Subline36" serif:id="Subline">
                        <path
                            d="M0.491,-0.009C0.476,-0.003 0.462,0.001 0.451,0.005C0.439,0.008 0.426,0.01 0.412,0.01C0.386,0.01 0.366,0.004 0.351,-0.008C0.336,-0.02 0.326,-0.037 0.322,-0.06L0.319,-0.06C0.298,-0.037 0.275,-0.019 0.251,-0.006C0.226,0.006 0.197,0.012 0.163,0.012C0.127,0.012 0.097,0.001 0.074,-0.021C0.051,-0.043 0.039,-0.072 0.039,-0.108C0.039,-0.126 0.042,-0.143 0.047,-0.158C0.052,-0.172 0.06,-0.186 0.07,-0.197C0.078,-0.207 0.089,-0.216 0.103,-0.223C0.116,-0.231 0.128,-0.237 0.14,-0.242C0.155,-0.247 0.184,-0.257 0.229,-0.272C0.274,-0.287 0.304,-0.299 0.32,-0.308L0.32,-0.356C0.32,-0.36 0.319,-0.368 0.317,-0.38C0.315,-0.392 0.312,-0.404 0.306,-0.415C0.299,-0.427 0.29,-0.437 0.278,-0.446C0.266,-0.455 0.249,-0.459 0.228,-0.459C0.213,-0.459 0.199,-0.457 0.186,-0.452C0.173,-0.447 0.164,-0.442 0.159,-0.436C0.159,-0.43 0.16,-0.42 0.163,-0.407C0.166,-0.395 0.168,-0.383 0.168,-0.372C0.168,-0.361 0.163,-0.35 0.153,-0.341C0.142,-0.331 0.128,-0.327 0.11,-0.327C0.094,-0.327 0.082,-0.332 0.074,-0.344C0.066,-0.356 0.062,-0.368 0.062,-0.383C0.062,-0.398 0.068,-0.412 0.078,-0.426C0.089,-0.439 0.103,-0.452 0.12,-0.462C0.134,-0.472 0.152,-0.479 0.173,-0.486C0.194,-0.492 0.214,-0.495 0.234,-0.495C0.261,-0.495 0.285,-0.493 0.305,-0.49C0.326,-0.486 0.344,-0.478 0.361,-0.465C0.377,-0.453 0.39,-0.437 0.399,-0.416C0.407,-0.396 0.412,-0.369 0.412,-0.336C0.412,-0.29 0.411,-0.249 0.41,-0.213C0.409,-0.177 0.409,-0.137 0.409,-0.095C0.409,-0.082 0.411,-0.072 0.415,-0.064C0.42,-0.057 0.426,-0.051 0.436,-0.045C0.44,-0.042 0.448,-0.041 0.459,-0.041C0.469,-0.04 0.48,-0.04 0.491,-0.04L0.491,-0.009ZM0.321,-0.267C0.293,-0.258 0.269,-0.25 0.248,-0.243C0.227,-0.235 0.208,-0.225 0.19,-0.213C0.174,-0.202 0.161,-0.189 0.151,-0.174C0.142,-0.159 0.137,-0.141 0.137,-0.12C0.137,-0.093 0.144,-0.073 0.158,-0.061C0.173,-0.048 0.191,-0.042 0.212,-0.042C0.236,-0.042 0.256,-0.047 0.273,-0.058C0.291,-0.07 0.306,-0.083 0.318,-0.098L0.321,-0.267Z"
                            style="fill:#f8f7f2;fill-rule:nonzero;" />
                    </g>
                </g>
                <g transform="matrix(38.136059,-32.336373,32.336373,38.136059,872.106868,1250.759415)">
                    <g id="Subline37" serif:id="Subline">
                        <path
                            d="M0.258,0.013C0.188,0.013 0.134,-0.01 0.094,-0.057C0.055,-0.103 0.035,-0.165 0.035,-0.243C0.035,-0.277 0.04,-0.308 0.051,-0.338C0.062,-0.367 0.077,-0.394 0.097,-0.418C0.116,-0.441 0.14,-0.46 0.169,-0.474C0.198,-0.488 0.23,-0.495 0.264,-0.495C0.311,-0.495 0.35,-0.484 0.379,-0.461C0.409,-0.439 0.424,-0.408 0.424,-0.369C0.424,-0.352 0.42,-0.338 0.412,-0.325C0.404,-0.313 0.391,-0.307 0.374,-0.307C0.354,-0.307 0.339,-0.312 0.329,-0.321C0.318,-0.331 0.313,-0.342 0.313,-0.354C0.313,-0.369 0.315,-0.384 0.319,-0.399C0.323,-0.415 0.325,-0.426 0.326,-0.433C0.32,-0.443 0.311,-0.45 0.3,-0.453C0.288,-0.457 0.276,-0.458 0.262,-0.458C0.247,-0.458 0.232,-0.455 0.218,-0.448C0.203,-0.442 0.19,-0.43 0.176,-0.412C0.164,-0.395 0.154,-0.373 0.147,-0.346C0.139,-0.318 0.136,-0.285 0.136,-0.247C0.136,-0.186 0.149,-0.137 0.176,-0.098C0.203,-0.06 0.238,-0.041 0.282,-0.041C0.313,-0.041 0.34,-0.049 0.361,-0.064C0.382,-0.079 0.402,-0.102 0.42,-0.133L0.452,-0.112C0.43,-0.074 0.402,-0.043 0.367,-0.021C0.332,0.001 0.295,0.013 0.258,0.013Z"
                            style="fill:#f8f7f2;fill-rule:nonzero;" />
                    </g>
                </g>
                <g transform="matrix(36.75408,-33.898932,33.898932,36.75408,889.448025,1236.063053)">
                    <g id="Subline38" serif:id="Subline">
                        <path
                            d="M0.404,-0.419C0.404,-0.403 0.4,-0.388 0.392,-0.375C0.383,-0.362 0.371,-0.356 0.354,-0.356C0.336,-0.356 0.322,-0.361 0.312,-0.37C0.303,-0.38 0.298,-0.39 0.298,-0.401C0.298,-0.409 0.298,-0.415 0.3,-0.421C0.301,-0.427 0.302,-0.433 0.303,-0.438C0.287,-0.438 0.27,-0.432 0.249,-0.42C0.229,-0.408 0.211,-0.39 0.197,-0.367L0.197,-0.087C0.197,-0.076 0.199,-0.066 0.203,-0.059C0.208,-0.052 0.215,-0.047 0.224,-0.043C0.232,-0.04 0.243,-0.037 0.256,-0.036C0.268,-0.034 0.28,-0.033 0.289,-0.032L0.289,-0L0.035,-0L0.035,-0.032C0.043,-0.033 0.05,-0.034 0.058,-0.034C0.066,-0.035 0.073,-0.036 0.079,-0.038C0.088,-0.041 0.095,-0.046 0.099,-0.053C0.104,-0.061 0.106,-0.07 0.106,-0.082L0.106,-0.379C0.106,-0.389 0.104,-0.399 0.099,-0.409C0.094,-0.419 0.088,-0.427 0.079,-0.433C0.073,-0.437 0.066,-0.439 0.057,-0.441C0.049,-0.443 0.04,-0.444 0.03,-0.445L0.03,-0.477L0.19,-0.487L0.197,-0.48L0.197,-0.413L0.199,-0.413C0.219,-0.439 0.242,-0.459 0.267,-0.473C0.291,-0.486 0.314,-0.493 0.334,-0.493C0.355,-0.493 0.372,-0.486 0.385,-0.473C0.397,-0.46 0.404,-0.442 0.404,-0.419Z"
                            style="fill:#f8f7f2;fill-rule:nonzero;" />
                    </g>
                </g>
                <g transform="matrix(35.203683,-35.506347,35.506347,35.203683,904.576757,1222.218616)">
                    <g id="Subline39" serif:id="Subline">
                        <path
                            d="M0.491,-0.009C0.476,-0.003 0.462,0.001 0.451,0.005C0.439,0.008 0.426,0.01 0.412,0.01C0.386,0.01 0.366,0.004 0.351,-0.008C0.336,-0.02 0.326,-0.037 0.322,-0.06L0.319,-0.06C0.298,-0.037 0.275,-0.019 0.251,-0.006C0.226,0.006 0.197,0.012 0.163,0.012C0.127,0.012 0.097,0.001 0.074,-0.021C0.051,-0.043 0.039,-0.072 0.039,-0.108C0.039,-0.126 0.042,-0.143 0.047,-0.158C0.052,-0.172 0.06,-0.186 0.07,-0.197C0.078,-0.207 0.089,-0.216 0.103,-0.223C0.116,-0.231 0.128,-0.237 0.14,-0.242C0.155,-0.247 0.184,-0.257 0.229,-0.272C0.274,-0.287 0.304,-0.299 0.32,-0.308L0.32,-0.356C0.32,-0.36 0.319,-0.368 0.317,-0.38C0.315,-0.392 0.312,-0.404 0.306,-0.415C0.299,-0.427 0.29,-0.437 0.278,-0.446C0.266,-0.455 0.249,-0.459 0.228,-0.459C0.213,-0.459 0.199,-0.457 0.186,-0.452C0.173,-0.447 0.164,-0.442 0.159,-0.436C0.159,-0.43 0.16,-0.42 0.163,-0.407C0.166,-0.395 0.168,-0.383 0.168,-0.372C0.168,-0.361 0.163,-0.35 0.153,-0.341C0.142,-0.331 0.128,-0.327 0.11,-0.327C0.094,-0.327 0.082,-0.332 0.074,-0.344C0.066,-0.356 0.062,-0.368 0.062,-0.383C0.062,-0.398 0.068,-0.412 0.078,-0.426C0.089,-0.439 0.103,-0.452 0.12,-0.462C0.134,-0.472 0.152,-0.479 0.173,-0.486C0.194,-0.492 0.214,-0.495 0.234,-0.495C0.261,-0.495 0.285,-0.493 0.305,-0.49C0.326,-0.486 0.344,-0.478 0.361,-0.465C0.377,-0.453 0.39,-0.437 0.399,-0.416C0.407,-0.396 0.412,-0.369 0.412,-0.336C0.412,-0.29 0.411,-0.249 0.41,-0.213C0.409,-0.177 0.409,-0.137 0.409,-0.095C0.409,-0.082 0.411,-0.072 0.415,-0.064C0.42,-0.057 0.426,-0.051 0.436,-0.045C0.44,-0.042 0.448,-0.041 0.459,-0.041C0.469,-0.04 0.48,-0.04 0.491,-0.04L0.491,-0.009ZM0.321,-0.267C0.293,-0.258 0.269,-0.25 0.248,-0.243C0.227,-0.235 0.208,-0.225 0.19,-0.213C0.174,-0.202 0.161,-0.189 0.151,-0.174C0.142,-0.159 0.137,-0.141 0.137,-0.12C0.137,-0.093 0.144,-0.073 0.158,-0.061C0.173,-0.048 0.191,-0.042 0.212,-0.042C0.236,-0.042 0.256,-0.047 0.273,-0.058C0.291,-0.07 0.306,-0.083 0.318,-0.098L0.321,-0.267Z"
                            style="fill:#f8f7f2;fill-rule:nonzero;" />
                    </g>
                </g>
            </g>
            <g id="EVAS" transform="matrix(1,0,0,1,23.816006,88)">
                <g transform="matrix(2.074829,0,0,2.074829,-251.556386,226.742715)">
                    <g>
                        <g transform="matrix(200,0,0,200,191.5415,185.270546)">
                            <path
                                d="M0.63,-0.204L0.617,-0L0.042,-0L0.042,-0.035C0.052,-0.035 0.065,-0.037 0.081,-0.039C0.097,-0.041 0.108,-0.043 0.113,-0.045C0.123,-0.05 0.13,-0.057 0.135,-0.064C0.139,-0.072 0.141,-0.082 0.141,-0.094L0.141,-0.592C0.141,-0.603 0.139,-0.613 0.135,-0.621C0.132,-0.629 0.124,-0.636 0.113,-0.641C0.104,-0.645 0.092,-0.649 0.077,-0.652C0.063,-0.656 0.051,-0.658 0.042,-0.658L0.042,-0.693L0.578,-0.693L0.578,-0.526L0.542,-0.526C0.535,-0.551 0.521,-0.577 0.499,-0.605C0.478,-0.633 0.457,-0.648 0.438,-0.65C0.427,-0.652 0.415,-0.653 0.401,-0.653C0.387,-0.654 0.371,-0.654 0.354,-0.654L0.245,-0.654L0.245,-0.379L0.323,-0.379C0.348,-0.379 0.366,-0.381 0.378,-0.386C0.389,-0.391 0.399,-0.399 0.408,-0.41C0.415,-0.419 0.421,-0.432 0.427,-0.448C0.432,-0.463 0.435,-0.478 0.437,-0.492L0.473,-0.492L0.473,-0.221L0.437,-0.221C0.435,-0.237 0.432,-0.253 0.426,-0.271C0.42,-0.288 0.414,-0.301 0.408,-0.309C0.398,-0.321 0.387,-0.33 0.374,-0.333C0.361,-0.337 0.344,-0.339 0.323,-0.339L0.245,-0.339L0.245,-0.131C0.245,-0.111 0.246,-0.094 0.249,-0.082C0.252,-0.07 0.258,-0.061 0.266,-0.055C0.275,-0.049 0.286,-0.045 0.301,-0.043C0.315,-0.041 0.336,-0.04 0.363,-0.04L0.406,-0.04C0.423,-0.04 0.438,-0.041 0.45,-0.042C0.463,-0.043 0.475,-0.046 0.489,-0.049C0.502,-0.052 0.511,-0.057 0.517,-0.063C0.532,-0.079 0.547,-0.102 0.564,-0.134C0.58,-0.166 0.591,-0.189 0.595,-0.204L0.63,-0.204Z"
                                style="fill:#f8f7f2;fill-rule:nonzero;" />
                        </g>
                        <g transform="matrix(200,0,0,200,322.205563,185.270546)">
                            <path
                                d="M0.687,-0.658C0.679,-0.658 0.668,-0.656 0.656,-0.653C0.644,-0.649 0.634,-0.645 0.626,-0.64C0.615,-0.633 0.607,-0.625 0.6,-0.614C0.593,-0.603 0.587,-0.59 0.58,-0.576C0.558,-0.524 0.526,-0.443 0.482,-0.334C0.438,-0.224 0.393,-0.11 0.347,0.009L0.307,0.009C0.26,-0.117 0.215,-0.239 0.171,-0.355C0.127,-0.472 0.098,-0.551 0.082,-0.592C0.078,-0.602 0.073,-0.611 0.066,-0.619C0.06,-0.627 0.051,-0.634 0.041,-0.641C0.032,-0.646 0.022,-0.65 0.011,-0.653C0,-0.656 -0.009,-0.658 -0.019,-0.658L-0.019,-0.693L0.268,-0.693L0.268,-0.658C0.244,-0.657 0.223,-0.654 0.206,-0.651C0.19,-0.647 0.181,-0.641 0.181,-0.632C0.181,-0.628 0.182,-0.624 0.183,-0.619C0.184,-0.614 0.186,-0.61 0.187,-0.607C0.199,-0.576 0.218,-0.524 0.245,-0.451C0.272,-0.379 0.311,-0.277 0.36,-0.144C0.385,-0.204 0.414,-0.275 0.446,-0.357C0.478,-0.439 0.5,-0.495 0.511,-0.526C0.521,-0.556 0.528,-0.576 0.53,-0.587C0.531,-0.599 0.532,-0.608 0.532,-0.615C0.532,-0.623 0.529,-0.629 0.522,-0.634C0.516,-0.639 0.507,-0.643 0.496,-0.647C0.485,-0.65 0.474,-0.653 0.463,-0.654C0.452,-0.656 0.441,-0.657 0.429,-0.658L0.429,-0.693L0.687,-0.693L0.687,-0.658Z"
                                style="fill:#f8f7f2;fill-rule:nonzero;" />
                        </g>
                    </g>
                </g>
                <g transform="matrix(2.074829,0,0,2.074829,-915.295529,-272.732702)">
                    <g>
                        <g transform="matrix(200,0,0,200,607.051039,537.995946)">
                            <path
                                d="M0.694,-0L0.405,-0L0.405,-0.035C0.431,-0.036 0.452,-0.04 0.469,-0.044C0.485,-0.049 0.494,-0.055 0.494,-0.062C0.494,-0.065 0.493,-0.069 0.493,-0.073C0.492,-0.077 0.491,-0.081 0.49,-0.084L0.432,-0.24L0.189,-0.24C0.18,-0.217 0.173,-0.197 0.167,-0.18C0.162,-0.163 0.156,-0.148 0.152,-0.133C0.148,-0.119 0.145,-0.108 0.143,-0.099C0.141,-0.09 0.141,-0.083 0.141,-0.078C0.141,-0.065 0.151,-0.055 0.171,-0.047C0.192,-0.04 0.215,-0.036 0.241,-0.035L0.241,-0L-0.02,-0L-0.02,-0.035C-0.012,-0.035 -0.001,-0.037 0.012,-0.04C0.024,-0.043 0.035,-0.048 0.043,-0.053C0.056,-0.062 0.066,-0.071 0.073,-0.08C0.08,-0.09 0.087,-0.103 0.094,-0.12C0.129,-0.207 0.167,-0.305 0.209,-0.413C0.251,-0.521 0.289,-0.618 0.322,-0.703L0.361,-0.703L0.592,-0.105C0.597,-0.092 0.602,-0.082 0.608,-0.074C0.615,-0.066 0.623,-0.059 0.634,-0.051C0.642,-0.047 0.652,-0.043 0.664,-0.04C0.676,-0.037 0.686,-0.035 0.694,-0.035L0.694,-0ZM0.415,-0.283L0.31,-0.552L0.207,-0.283L0.415,-0.283Z"
                                style="fill:#f8f7f2;fill-rule:nonzero;" />
                        </g>
                        <g transform="matrix(200,0,0,200,741.230726,537.995946)">
                            <path
                                d="M0.479,-0.318C0.494,-0.302 0.504,-0.284 0.511,-0.264C0.518,-0.245 0.522,-0.222 0.522,-0.197C0.522,-0.136 0.499,-0.085 0.454,-0.045C0.409,-0.006 0.353,0.014 0.286,0.014C0.255,0.014 0.224,0.009 0.193,-0C0.162,-0.01 0.135,-0.021 0.113,-0.035L0.092,0L0.053,0L0.046,-0.237L0.085,-0.237C0.094,-0.208 0.103,-0.181 0.114,-0.157C0.125,-0.134 0.139,-0.112 0.157,-0.091C0.174,-0.072 0.194,-0.057 0.217,-0.045C0.239,-0.034 0.265,-0.028 0.295,-0.028C0.318,-0.028 0.337,-0.031 0.354,-0.037C0.371,-0.043 0.385,-0.051 0.395,-0.062C0.405,-0.073 0.413,-0.085 0.418,-0.1C0.423,-0.114 0.426,-0.131 0.426,-0.15C0.426,-0.178 0.418,-0.203 0.402,-0.227C0.387,-0.251 0.363,-0.269 0.333,-0.282C0.311,-0.29 0.287,-0.3 0.26,-0.31C0.232,-0.32 0.209,-0.33 0.189,-0.339C0.15,-0.356 0.12,-0.379 0.098,-0.408C0.076,-0.436 0.065,-0.474 0.065,-0.52C0.065,-0.546 0.071,-0.57 0.082,-0.593C0.092,-0.616 0.108,-0.636 0.127,-0.654C0.146,-0.671 0.169,-0.684 0.194,-0.694C0.22,-0.704 0.247,-0.708 0.275,-0.708C0.307,-0.708 0.335,-0.704 0.361,-0.694C0.386,-0.684 0.409,-0.673 0.43,-0.66L0.45,-0.693L0.489,-0.693L0.493,-0.463L0.453,-0.463C0.446,-0.489 0.438,-0.514 0.429,-0.539C0.42,-0.563 0.408,-0.584 0.394,-0.604C0.38,-0.623 0.363,-0.638 0.343,-0.649C0.323,-0.66 0.298,-0.666 0.269,-0.666C0.238,-0.666 0.211,-0.656 0.189,-0.636C0.168,-0.616 0.157,-0.592 0.157,-0.563C0.157,-0.534 0.164,-0.509 0.178,-0.489C0.192,-0.469 0.212,-0.453 0.239,-0.44C0.263,-0.429 0.286,-0.419 0.309,-0.411C0.332,-0.403 0.354,-0.394 0.375,-0.384C0.395,-0.376 0.414,-0.366 0.432,-0.355C0.45,-0.345 0.466,-0.332 0.479,-0.318Z"
                                style="fill:#f8f7f2;fill-rule:nonzero;" />
                        </g>
                    </g>
                </g>
            </g>
            <g id="Fig-Leaf" serif:id="Fig Leaf" transform="matrix(1.15332,0,0,1.15332,0,0)">
                <path
                    d="M884.189,829.918C883.833,829.491 389.688,310.715 283.648,199.358C265.001,179.777 262.908,178.943 265.751,175.708C288.092,150.293 290.625,143.73 292.585,150.474C296.505,163.964 290.328,166.967 314.059,197.851C359.979,257.611 376.816,284.222 406.526,278.641C480.857,264.678 456.987,154.469 474.862,117.68C497.565,70.956 560.863,75.202 563.474,75.077C578.001,74.379 575.36,64.439 582.481,61.458C594.357,56.485 600.535,75.977 620.213,64.01C631.202,57.327 632.076,59.913 644.442,63.69C668.428,71.017 671.262,57.023 677.527,55.604C680.646,54.897 680.283,56.219 683.87,59.031C692.769,66.006 718.88,55.191 727.139,63.838C734.662,71.715 734.89,74.066 745.452,71.304C751.006,69.852 756.291,77.167 754.27,81.397C751.51,87.173 751.112,87.111 751.228,93.511C751.577,112.766 711.688,120.393 737.743,135.052C772.937,154.853 790.357,136.973 792.705,147.441C795.416,159.53 800.313,154.391 812.433,156.862C820.192,158.444 817.381,163.059 824.681,166.01C836.572,170.817 844.72,162.138 849.739,175.414C856.123,192.3 869.47,185.937 878.668,207.428C884.314,220.62 893.124,215.059 896.838,225.383C900.488,235.53 898.002,237.751 914.21,249.898C916.548,251.651 939.027,268.498 929.113,283.242C917.867,299.968 901.283,300.614 900.594,300.804C888.375,304.157 889.529,322.877 871.517,323.935C855.842,324.856 858.216,330.355 845.329,339.246C835.476,346.044 830.633,332.414 817.805,341.913C808.932,348.484 807.92,345.97 797.535,342.396C784.82,338.019 782.748,356.282 771.611,348.342C763.046,342.236 762.924,341.043 752.483,342.349C743.233,343.506 741.625,325.642 722.782,337.945C704.046,350.177 734.886,345.98 741.129,351.902C744.159,354.777 741.453,367.742 756.515,366.88C768.613,366.187 769.616,366.275 777.728,376.326C790.222,391.804 803.612,375.466 815.058,391.803C821.891,401.556 815.249,406.5 828.266,413.92C840.031,420.626 833.614,430.912 832.238,432.226C821.988,442.023 834.669,442.875 837.781,451.406C840.447,458.718 838.21,460.002 845.161,466.835C857.769,479.23 840.383,500.537 860.165,513.988C866.078,518.008 861.948,533.067 863.841,546.448C865.708,559.639 886.604,561.556 882.109,583.425C880.003,593.671 878.485,593.665 881.02,608.588C883.902,625.552 878.314,626.496 883.386,636.561C887.377,644.477 887.595,644.841 884.935,653.628C880.361,668.734 896.192,671.538 884.056,690.206C875.027,704.092 884.767,706.64 885.046,719.52C885.352,733.679 874.275,733.978 884.053,764.644C890.158,783.79 886.094,786.956 885.832,799.513C885.379,821.182 889.072,835.754 884.189,829.918Z"
                    style="fill:#c31f39;" />
            </g>
        </g>
    </g>
</svg>