<?xml version="1.0" encoding="UTF-8" standalone="no"?>
<!DOCTYPE svg PUBLIC "-//W3C//DTD SVG 1.1//EN" "http://www.w3.org/Graphics/SVG/1.1/DTD/svg11.dtd">
<svg width="100%" height="100%" viewBox="0 0 770 895" version="1.1" xmlns="http://www.w3.org/2000/svg" xmlns:xlink="http://www.w3.org/1999/xlink" xml:space="preserve" xmlns:serif="http://www.serif.com/" style="fill-rule:evenodd;clip-rule:evenodd;stroke-linejoin:round;stroke-miterlimit:2;">
    <g transform="matrix(1,0,0,1,-1722.299509,-63.912401)">
        <g transform="matrix(1,0,0,1,1417,0)">
            <g id="Fig-Leaf" serif:id="Fig Leaf" transform="matrix(1.15332,0,0,1.15332,0,0)">
                <path d="M884.189,829.918C883.833,829.491 389.688,310.715 283.648,199.358C265.001,179.777 262.908,178.943 265.751,175.708C288.092,150.293 290.625,143.73 292.585,150.474C296.505,163.964 290.328,166.967 314.059,197.851C359.979,257.611 376.816,284.222 406.526,278.641C480.857,264.678 456.987,154.469 474.862,117.68C497.565,70.956 560.863,75.202 563.474,75.077C578.001,74.379 575.36,64.439 582.481,61.458C594.357,56.485 600.535,75.977 620.213,64.01C631.202,57.327 632.076,59.913 644.442,63.69C668.428,71.017 671.262,57.023 677.527,55.604C680.646,54.897 680.283,56.219 683.87,59.031C692.769,66.006 718.88,55.191 727.139,63.838C734.662,71.715 734.89,74.066 745.452,71.304C751.006,69.852 756.291,77.167 754.27,81.397C751.51,87.173 751.112,87.111 751.228,93.511C751.577,112.766 711.688,120.393 737.743,135.052C772.937,154.853 790.357,136.973 792.705,147.441C795.416,159.53 800.313,154.391 812.433,156.862C820.192,158.444 817.381,163.059 824.681,166.01C836.572,170.817 844.72,162.138 849.739,175.414C856.123,192.3 869.47,185.937 878.668,207.428C884.314,220.62 893.124,215.059 896.838,225.383C900.488,235.53 898.002,237.751 914.21,249.898C916.548,251.651 939.027,268.498 929.113,283.242C917.867,299.968 901.283,300.614 900.594,300.804C888.375,304.157 889.529,322.877 871.517,323.935C855.842,324.856 858.216,330.355 845.329,339.246C835.476,346.044 830.633,332.414 817.805,341.913C808.932,348.484 807.92,345.97 797.535,342.396C784.82,338.019 782.748,356.282 771.611,348.342C763.046,342.236 762.924,341.043 752.483,342.349C743.233,343.506 741.625,325.642 722.782,337.945C704.046,350.177 734.886,345.98 741.129,351.902C744.159,354.777 741.453,367.742 756.515,366.88C768.613,366.187 769.616,366.275 777.728,376.326C790.222,391.804 803.612,375.466 815.058,391.803C821.891,401.556 815.249,406.5 828.266,413.92C840.031,420.626 833.614,430.912 832.238,432.226C821.988,442.023 834.669,442.875 837.781,451.406C840.447,458.718 838.21,460.002 845.161,466.835C857.769,479.23 840.383,500.537 860.165,513.988C866.078,518.008 861.948,533.067 863.841,546.448C865.708,559.639 886.604,561.556 882.109,583.425C880.003,593.671 878.485,593.665 881.02,608.588C883.902,625.552 878.314,626.496 883.386,636.561C887.377,644.477 887.595,644.841 884.935,653.628C880.361,668.734 896.192,671.538 884.056,690.206C875.027,704.092 884.767,706.64 885.046,719.52C885.352,733.679 874.275,733.978 884.053,764.644C890.158,783.79 886.094,786.956 885.832,799.513C885.379,821.182 889.072,835.754 884.189,829.918Z" style="fill:rgb(195,31,57);"/>
            </g>
        </g>
    </g>
</svg>
